<?xml version="1.0" encoding="utf-8"?>
<svg viewBox="25 50 360 210"
    xmlns="http://www.w3.org/2000/svg">
    <line x1="140" y1="208" x2="180" y2="156" style="stroke: rgb(76, 55, 197);"/>
    <line x1="140" y1="228" x2="180" y2="156" style="stroke: rgb(45, 204, 0);"/>
    <line x1="140" y1="188" x2="180" y2="156" style="stroke: rgb(204, 0, 0);"/>
    <rect x="180" y="130" width="200" height="50" style="fill: rgb(241, 245, 174); stroke: rgb(0, 0, 0);"/>
    <rect x="180" y="180" width="200" height="75" style="fill: rgb(245, 201, 174); stroke: rgb(0, 0, 0);"/>
    <rect x="190" y="150" width="20" height="15" style="stroke: rgb(0, 0, 0); fill: rgb(207, 179, 0);"/>
    <rect x="210" y="200" width="60" height="15" style="stroke: rgb(0, 0, 0); fill: rgb(235, 52, 83);"/>
    <rect x="270" y="150" width="30" height="15" style="stroke: rgb(0, 0, 0); fill: rgb(207, 179, 0);"/>
    <rect x="210" y="150" width="20" height="15" style="stroke: rgb(0, 0, 0); fill: rgb(207, 179, 0);"/>
    <rect x="230" y="215" width="60" height="15" style="stroke: rgb(0, 0, 0); fill: rgb(4, 42, 181);"/>
    <rect x="300" y="150" width="30" height="15" style="stroke: rgb(0, 0, 0); fill: rgb(207, 179, 0);"/>
    <rect x="230" y="150" width="20" height="15" style="stroke: rgb(0, 0, 0); fill: rgb(207, 179, 0);"/>
    <rect x="250" y="230" width="60" height="15" style="stroke: rgb(0, 0, 0); fill: rgb(4, 181, 19);"/>
    <rect x="330" y="150" width="30" height="15" style="stroke: rgb(0, 0, 0); fill: rgb(207, 179, 0);"/>
    <rect x="30" y="180" width="20" height="15" style="stroke: rgb(0, 0, 0); fill: rgb(207, 179, 0);"/>
    <rect x="50" y="180" width="60" height="15" style="stroke: rgb(0, 0, 0); fill: rgb(235, 52, 83);"/>
    <rect x="110" y="180" width="30" height="15" style="stroke: rgb(0, 0, 0); fill: rgb(207, 179, 0);"/>
    <rect x="30" y="200" width="20" height="15" style="stroke: rgb(0, 0, 0); fill: rgb(207, 179, 0);"/>
    <rect x="50" y="200" width="60" height="15" style="stroke: rgb(0, 0, 0); fill: rgb(4, 42, 181);"/>
    <rect x="110" y="200" width="30" height="15" style="stroke: rgb(0, 0, 0); fill: rgb(207, 179, 0);"/>
    <rect x="30" y="220" width="20" height="15" style="stroke: rgb(0, 0, 0); fill: rgb(207, 179, 0);"/>
    <rect x="50" y="220" width="60" height="15" style="stroke: rgb(0, 0, 0); fill: rgb(4, 181, 19);"/>
    <rect x="110" y="220" width="30" height="15" style="stroke: rgb(0, 0, 0); fill: rgb(207, 179, 0);"/>
    <text style="white-space: pre; fill: rgb(51, 51, 51); font-family: Arial, sans-serif; font-size: 17.6px;" x="185" y="145">Thread 1</text>
    <text style="white-space: pre; fill: rgb(51, 51, 51); font-family: Arial, sans-serif; font-size: 17.6px;" x="190" y="195">I/O</text>
    <rect x="120" y="55" width="160" height="35" style="fill: rgb(182, 176, 207); stroke: rgb(0, 0, 0);"/>
    <text style="white-space: pre; fill: rgb(51, 51, 51); font-family: Arial, sans-serif; font-size: 22;" x="140" y="80">Async/Await</text>
    <rect x="50" y="140" width="65" height="30" style="fill: rgb(182, 176, 207); stroke: rgb(0, 0, 0);"/>
    <text style="white-space: pre; fill: rgb(51, 51, 51); font-family: Arial, sans-serif; font-size: 17.6px;" x="60" y="160">Tasks</text>
    <text style="white-space: pre; fill: rgb(51, 51, 51); font-family: Arial, sans-serif; font-size: 12px;" x="195" y="161.665">1</text>
    <text style="white-space: pre; fill: rgb(51, 51, 51); font-family: Arial, sans-serif; font-size: 12px;" x="341" y="161.801">3</text>
    <text style="white-space: pre; fill: rgb(51, 51, 51); font-family: Arial, sans-serif; font-size: 12px;" x="236" y="161.801">3</text>
    <text style="white-space: pre; fill: rgb(51, 51, 51); font-family: Arial, sans-serif; font-size: 12px;" x="312" y="161.801">2</text>
    <text style="white-space: pre; fill: rgb(51, 51, 51); font-family: Arial, sans-serif; font-size: 12px;" x="217" y="161.665">2</text>
    <text style="white-space: pre; fill: rgb(51, 51, 51); font-family: Arial, sans-serif; font-size: 12px;" x="282" y="161.665">1</text>
    <text style="white-space: pre; fill: rgb(51, 51, 51); font-family: Arial, sans-serif; font-size: 12px;" x="121" y="191.758">1</text>
    <text style="white-space: pre; fill: rgb(51, 51, 51); font-family: Arial, sans-serif; font-size: 12px;" x="36" y="191.758">1</text>
    <text style="white-space: pre; fill: rgb(51, 51, 51); font-family: Arial, sans-serif; font-size: 12px;" x="121" y="231.898">3</text>
    <text style="white-space: pre; fill: rgb(51, 51, 51); font-family: Arial, sans-serif; font-size: 12px;" x="36" y="231.758">3</text>
    <text style="white-space: pre; fill: rgb(51, 51, 51); font-family: Arial, sans-serif; font-size: 12px;" x="121" y="211.758">2</text>
    <text style="white-space: pre; fill: rgb(51, 51, 51); font-family: Arial, sans-serif; font-size: 12px;" x="36" y="211.758">2</text>
    <rect x="180" y="100" width="200" height="30" style="fill: rgb(182, 176, 207); stroke: rgb(0, 0, 0);"/>
    <text style="white-space: pre; fill: rgb(51, 51, 51); font-family: Arial, sans-serif; font-size: 17.6px;" x="255.985" y="118.736">Time</text>
    <line x1="208" y1="122" x2="355" y2="122" style="stroke: rgb(0, 0, 0);"/>
    <line x1="344" y1="119" x2="355" y2="122" style="stroke: rgb(0, 0, 0);"/>
    <line x1="344" y1="125" x2="355" y2="122" style="stroke: rgb(0, 0, 0);"/>
    <line x1="270" y1="165" x2="270" y2="200" stroke="black" style="stroke-opacity: 0.05;"/>
    <line x1="210" y1="160" x2="210" y2="200" stroke="black" style="stroke-opacity: 0.05;"/>
    <line x1="230" y1="165" x2="230" y2="215" stroke="black" style="stroke-opacity: 0.05;"/>
    <line x1="250" y1="165" x2="250" y2="230" stroke="black" style="stroke-opacity: 0.05;"/>
    <line x1="310" y1="165" x2="310" y2="230" stroke="black" style="stroke-opacity: 0.05;"/>
    <line x1="290" y1="165" x2="290" y2="215" stroke="black" style="stroke-opacity: 0.05;"/>
</svg>