<?xml version="1.0" encoding="utf-8"?>
<svg viewBox="34 80 434 365" style="enable-background:new 0 0 500 500;"
	xmlns="http://www.w3.org/2000/svg">
	<g id="OBJECTS" transform="matrix(1, 0, 0, 1, 0, 3.552713678800501e-15)">
		<path style="fill:#D5F0FE;" d="M429.576,248.462c33.717-33.247,44.004-91.012,11.456-128.374 c-28.596-32.825-80.328-44.11-119.661-25.092c-15.879,7.678-28.949,20.083-38.02,35.16c-11.05,18.366-15.441,39.932-28.358,57.258 c-29.348,39.363-83.812,13.491-121.539,33.712c-42.257,22.649-61.232,77.157-48.367,122.198 c12.177,42.629,51.394,71.813,94.57,77.276c50.996,6.453,96.169-21.288,119.108-66.427c11.674-22.972,21.783-47.522,44.554-61.599 c22.285-13.777,49.19-17.729,71.243-32.018C419.968,257.055,424.989,252.985,429.576,248.462z"/>
		<path style="fill:none;stroke:#9DBFF3;stroke-linecap:round;stroke-linejoin:round;stroke-miterlimit:10;" d="M239.701,414.496 l-0.589-7.114c-0.075-0.909-1.094-1.515-2.003-1.44l-4.091,0.339L233,406.283c-0.691-2.019-1.756-4.295-3.143-6.201l2.651-3.158 c0.59-0.696,0.505-1.738-0.192-2.328l-5.445-4.614c-0.696-0.59-1.735-0.504-2.324,0.192l-2.646,3.131l0.002,0.013 c-2.041-1.045-3.934-1.806-6.558-2.147l-0.339-4.09c-0.075-0.909-0.939-1.656-1.848-1.581l-7.114,0.589 c-0.909,0.075-1.218,0.92-1.143,1.829l0.339,4.091l0.002,0.019c-2.535,0.733-4.45,1.77-6.355,3.157l-3.312-2.637 c-0.696-0.59-1.738-0.502-2.328,0.194l-4.614,5.45c-0.59,0.696-0.503,1.744,0.193,2.334l3.133,2.664l0.016,0.035 c-1.045,2.041-1.799,4.009-2.141,6.632l-4.09,0.339c-0.909,0.075-1.36,0.764-1.285,1.673l0.589,7.114 c0.075,0.91,0.623,1.393,1.532,1.318l4.091-0.339l0.019-0.001c0.733,2.535,1.766,4.375,3.153,6.28l-2.641,3.237 c-0.59,0.696-0.497,1.738,0.199,2.328l5.459,4.613c0.696,0.59,1.764,0.501,2.353-0.195l2.703-3.136l0.112-0.023 c2.041,1.045,4.163,1.787,6.787,2.128l0.339,4.09c0.075,0.91,0.468,1.535,1.377,1.459l7.114-0.589 c0.909-0.075,1.689-0.797,1.614-1.707l-0.339-4.091l-0.002-0.019c2.535-0.733,4.221-1.752,6.126-3.139l3.083,2.655 c0.697,0.59,1.738,0.499,2.328-0.197l4.613-5.454c0.59-0.696,0.502-1.755-0.194-2.344l-3.135-2.684l-0.019-0.075 c1.045-2.041,1.793-4.088,2.135-6.712l4.09-0.339C238.855,415.973,239.777,415.406,239.701,414.496z M207.257,403.964 c1.142-0.573,2.41-0.943,3.762-1.055c1.68-0.139,3.298,0.134,4.756,0.735c0.153,0.063,0.305,0.13,0.455,0.2 c0.075,0.035,0.149,0.071,0.223,0.108c0.148,0.074,0.294,0.151,0.438,0.232c0.144,0.081,0.286,0.165,0.425,0.252 c0.07,0.044,0.139,0.088,0.208,0.134c0.275,0.181,0.541,0.376,0.796,0.582c0.064,0.052,0.127,0.104,0.19,0.157 c0.125,0.106,0.248,0.215,0.369,0.328c0.06,0.056,0.12,0.113,0.178,0.17c0.118,0.115,0.232,0.233,0.345,0.354 c0.056,0.06,0.111,0.121,0.166,0.183c0.077,0.087,0.152,0.176,0.226,0.265c0.084,0.101,0.166,0.203,0.246,0.308 c0.1,0.131,0.198,0.265,0.292,0.401c0.125,0.182,0.245,0.368,0.359,0.558c0.057,0.095,0.113,0.19,0.167,0.288 c0.081,0.146,0.158,0.293,0.232,0.443c0.111,0.225,0.214,0.455,0.309,0.689c0.063,0.156,0.123,0.314,0.178,0.475 c0.278,0.801,0.461,1.649,0.534,2.533c0.132,1.591-0.106,3.128-0.643,4.525c-0.089,0.233-0.187,0.462-0.292,0.687 c-0.07,0.15-0.144,0.298-0.222,0.444c-0.077,0.146-0.158,0.29-0.242,0.432c-0.21,0.354-0.441,0.695-0.692,1.021 c-0.1,0.13-0.204,0.258-0.31,0.384c-0.159,0.188-0.326,0.371-0.498,0.547c-0.115,0.118-0.233,0.232-0.354,0.345 c-0.06,0.056-0.121,0.111-0.183,0.166c-0.123,0.109-0.249,0.215-0.378,0.319c-0.193,0.155-0.392,0.303-0.596,0.444 c-0.136,0.094-0.275,0.185-0.416,0.273c-1.34,0.832-2.891,1.368-4.571,1.507c-1.414,0.117-2.786-0.058-4.054-0.475 c-0.159-0.052-0.316-0.108-0.471-0.168c-0.466-0.179-0.916-0.391-1.347-0.633c-0.144-0.081-0.286-0.165-0.425-0.252 c-0.07-0.044-0.139-0.088-0.208-0.134c-0.206-0.136-0.407-0.279-0.603-0.43c-2.217-1.703-3.735-4.299-3.984-7.305 c-0.119-1.431,0.062-2.818,0.49-4.099c0.183-0.549,0.412-1.078,0.682-1.584c0.09-0.168,0.185-0.334,0.283-0.497 c0.247-0.407,0.522-0.796,0.823-1.164c0.3-0.368,0.626-0.716,0.975-1.04c0.06-0.056,0.121-0.111,0.183-0.166 c0.123-0.109,0.249-0.216,0.378-0.319s0.26-0.204,0.393-0.301c0.268-0.194,0.545-0.376,0.832-0.545 c0.093-0.055,0.188-0.108,0.284-0.16C207.048,404.071,207.152,404.016,207.257,403.964z"/>
		<path style="fill:none;stroke:#9DBFF3;stroke-linecap:round;stroke-linejoin:round;stroke-miterlimit:10;" d="M346.651,110.93 l-0.589-7.114c-0.075-0.91-1.094-1.515-2.003-1.44l-4.091,0.339l-0.018,0.002c-0.691-2.019-1.756-4.295-3.143-6.201l2.651-3.158 c0.59-0.696,0.504-1.739-0.192-2.328l-5.445-4.614c-0.696-0.59-1.735-0.504-2.325,0.192l-2.646,3.131l0.002,0.013 c-2.041-1.045-3.934-1.806-6.558-2.147l-0.339-4.09c-0.075-0.909-0.939-1.657-1.848-1.581l-7.114,0.589 c-0.909,0.075-1.219,0.92-1.143,1.829l0.339,4.091l0.001,0.019c-2.535,0.733-4.45,1.77-6.355,3.157l-3.312-2.637 c-0.696-0.59-1.738-0.502-2.328,0.194l-4.614,5.449c-0.59,0.696-0.503,1.744,0.193,2.334l3.133,2.664l0.016,0.035 c-1.045,2.041-1.799,4.008-2.141,6.632l-4.09,0.339c-0.909,0.075-1.36,0.764-1.285,1.674l0.589,7.114 c0.075,0.91,0.623,1.393,1.532,1.317l4.091-0.339l0.019-0.002c0.733,2.535,1.766,4.375,3.153,6.28l-2.641,3.237 c-0.59,0.696-0.497,1.738,0.199,2.328l5.459,4.613c0.696,0.59,1.763,0.501,2.353-0.195l2.703-3.136l0.112-0.023 c2.041,1.045,4.163,1.787,6.787,2.128l0.339,4.09c0.075,0.909,0.468,1.535,1.377,1.459l7.114-0.589 c0.909-0.075,1.689-0.798,1.614-1.707l-0.339-4.091l-0.002-0.019c2.535-0.733,4.221-1.752,6.126-3.139l3.083,2.655 c0.697,0.59,1.738,0.5,2.328-0.197l4.613-5.454c0.59-0.696,0.502-1.755-0.194-2.344l-3.134-2.684l-0.02-0.075 c1.045-2.041,1.793-4.088,2.135-6.712l4.09-0.339C345.805,112.406,346.726,111.839,346.651,110.93z M314.206,100.397 c1.142-0.573,2.41-0.943,3.762-1.055c1.68-0.139,3.298,0.134,4.756,0.735c0.154,0.063,0.305,0.13,0.455,0.2 c0.075,0.035,0.149,0.071,0.223,0.108c0.148,0.074,0.294,0.151,0.438,0.232c0.144,0.081,0.286,0.165,0.425,0.252 c0.07,0.044,0.139,0.088,0.208,0.134c0.275,0.181,0.541,0.376,0.796,0.582c0.064,0.052,0.127,0.104,0.19,0.157 c0.126,0.106,0.248,0.215,0.369,0.328c0.06,0.056,0.12,0.113,0.178,0.17c0.118,0.115,0.232,0.233,0.344,0.354 c0.056,0.06,0.111,0.121,0.166,0.183c0.077,0.087,0.152,0.176,0.226,0.265c0.084,0.101,0.166,0.203,0.246,0.308 c0.1,0.131,0.198,0.265,0.292,0.401c0.125,0.182,0.245,0.368,0.359,0.558c0.057,0.095,0.113,0.191,0.167,0.288 c0.081,0.146,0.159,0.293,0.232,0.443c0.111,0.225,0.214,0.455,0.309,0.689c0.063,0.156,0.123,0.314,0.178,0.475 c0.278,0.801,0.461,1.649,0.534,2.533c0.132,1.591-0.106,3.128-0.643,4.525c-0.089,0.233-0.187,0.462-0.293,0.687 c-0.07,0.15-0.144,0.298-0.222,0.444c-0.077,0.146-0.158,0.29-0.242,0.432c-0.21,0.354-0.441,0.696-0.692,1.021 c-0.1,0.13-0.203,0.258-0.31,0.384c-0.159,0.188-0.326,0.371-0.498,0.547c-0.115,0.118-0.233,0.232-0.353,0.345 c-0.06,0.056-0.121,0.111-0.183,0.166c-0.123,0.109-0.249,0.216-0.378,0.319c-0.193,0.155-0.392,0.303-0.596,0.444 c-0.136,0.094-0.275,0.185-0.416,0.273c-1.34,0.832-2.891,1.368-4.571,1.507c-1.414,0.117-2.785-0.058-4.054-0.475 c-0.159-0.052-0.316-0.108-0.471-0.168c-0.466-0.179-0.916-0.391-1.348-0.633c-0.144-0.081-0.286-0.165-0.425-0.252 c-0.07-0.044-0.139-0.088-0.208-0.133c-0.206-0.136-0.407-0.279-0.603-0.43c-2.217-1.703-3.735-4.299-3.984-7.305 c-0.118-1.431,0.062-2.818,0.49-4.099c0.183-0.549,0.412-1.078,0.682-1.584c0.09-0.168,0.184-0.334,0.283-0.497 c0.247-0.407,0.522-0.796,0.823-1.165c0.3-0.368,0.626-0.716,0.975-1.04c0.06-0.056,0.121-0.111,0.183-0.166 c0.123-0.109,0.249-0.215,0.378-0.319c0.129-0.103,0.26-0.204,0.394-0.301c0.267-0.195,0.545-0.376,0.831-0.545 c0.094-0.055,0.188-0.108,0.284-0.16C313.997,100.504,314.101,100.45,314.206,100.397z"/>
		<g>
			<g>
				<g>
					<path style="fill:none;stroke:#3F8ACE;stroke-width:2;stroke-linecap:round;stroke-linejoin:round;" d="M330.805,159.782 c-18.994-12.558-41.76-19.869-66.235-19.869c-40.243,0-75.87,19.768-97.698,50.125"/>
					<g>
						<path style="fill:#3F8ACE;" d="M327.528,152.123c-0.249,0.118-0.354,0.418-0.235,0.667l3.297,6.902l-7.649,0.07 c-0.277,0.002-0.499,0.228-0.496,0.504c0.003,0.276,0.231,0.498,0.505,0.496l8.434-0.077c0.17-0.002,0.329-0.09,0.42-0.235 c0.09-0.145,0.1-0.327,0.027-0.48l-3.636-7.611c-0.043-0.089-0.109-0.16-0.186-0.208 C327.869,152.063,327.688,152.046,327.528,152.123z"/>
					</g>
					<g>
						<path style="fill:#3F8ACE;" d="M167.15,181.708c0.275,0.02,0.481,0.262,0.46,0.537l-0.578,7.628l7.157-2.701 c0.259-0.098,0.548,0.032,0.645,0.29c0.097,0.258-0.036,0.548-0.292,0.645l-7.891,2.978c-0.16,0.06-0.34,0.035-0.476-0.068 c-0.137-0.103-0.212-0.268-0.199-0.438l0.637-8.411c0.008-0.099,0.043-0.188,0.098-0.262 C166.811,181.775,166.973,181.695,167.15,181.708z"/>
					</g>
				</g>
			</g>
			<g>
				<g>
					<path style="fill:none;stroke:#3F8ACE;stroke-width:2;stroke-linecap:round;stroke-linejoin:round;" d="M207.693,359.72 c10.083,5.41,21.115,9.46,32.904,11.862c49.237,10.029,97.571-11.577,123.926-50.873"/>
					<g>
						<path style="fill:#3F8ACE;" d="M211.667,367.041c0.237-0.141,0.314-0.449,0.172-0.686l-3.923-6.567l7.61-0.779 c0.275-0.028,0.476-0.273,0.448-0.548c-0.028-0.274-0.277-0.474-0.549-0.447l-8.391,0.859c-0.17,0.018-0.319,0.12-0.396,0.273 c-0.077,0.153-0.07,0.334,0.018,0.481l4.326,7.241c0.051,0.085,0.123,0.149,0.205,0.19 C211.333,367.132,211.514,367.132,211.667,367.041z"/>
					</g>
					<g>
						<path style="fill:#3F8ACE;" d="M364.443,329.037c-0.275-0.014-0.488-0.25-0.473-0.526l0.389-7.64l-7.088,2.878 c-0.256,0.104-0.549-0.019-0.652-0.274c-0.103-0.256,0.022-0.548,0.276-0.652l7.815-3.173c0.158-0.064,0.339-0.043,0.478,0.056 c0.139,0.099,0.218,0.263,0.21,0.433l-0.429,8.424c-0.006,0.099-0.039,0.189-0.092,0.264 C364.781,328.961,364.62,329.045,364.443,329.037z"/>
					</g>
				</g>
			</g>
		</g>
		<g>
			<path style="fill:#2E3A70;" d="M259.826,185.605h-33.961c-7.591,0-13.745-6.154-13.745-13.745v0 c0-7.591,6.154-13.744,13.745-13.744h33.961c7.591,0,13.745,6.154,13.745,13.744v0 C273.571,179.451,267.417,185.605,259.826,185.605z"/>
			<g>
				<path style="fill:#FFFFFF;" d="M237.628,169.815l-6.74,2.471l6.74,2.45v2.53l-9.637-3.664v-2.633l9.637-3.664V169.815z"/>
				<path style="fill:#FFFFFF;" d="M244.884,162.325h2.814l-6.681,19.07h-2.814L244.884,162.325z"/>
				<path style="fill:#FFFFFF;" d="M257.7,170.969v2.633l-9.636,3.664v-2.53l6.742-2.45l-6.742-2.471v-2.51L257.7,170.969z"/>
			</g>
		</g>
		<g>
			<g>
				<g>
					<g>
						<path style="fill:#3F8ACE;" d="M395.65,274.44h-38.43c-2.327,0-4.213-1.886-4.213-4.214V145.973h46.857v124.254 C399.863,272.554,397.977,274.44,395.65,274.44z"/>
						<path style="fill:#215191;" d="M392.013,245.815h-31.157c-1.898,0-3.437-1.539-3.437-3.438v-96.404h38.031v96.404 C395.45,244.276,393.911,245.815,392.013,245.815z"/>
						<g>
							<path style="fill:#1B2351;" d="M359.446,268.429h-0.179c-1.021,0-1.848-0.828-1.848-1.848v-12.228 c0-1.021,0.827-1.848,1.848-1.848h0.179c1.021,0,1.848,0.827,1.848,1.848v12.228 C361.294,267.602,360.467,268.429,359.446,268.429z"/>
							<path style="fill:#1B2351;" d="M367.985,268.429h-0.179c-1.021,0-1.848-0.828-1.848-1.848v-12.228 c0-1.021,0.828-1.848,1.848-1.848h0.179c1.021,0,1.848,0.827,1.848,1.848v12.228 C369.833,267.602,369.006,268.429,367.985,268.429z"/>
							<path style="fill:#1B2351;" d="M376.524,268.429h-0.179c-1.021,0-1.848-0.828-1.848-1.848v-12.228 c0-1.021,0.828-1.848,1.848-1.848h0.179c1.021,0,1.848,0.827,1.848,1.848v12.228 C378.372,267.602,377.545,268.429,376.524,268.429z"/>
							<path style="fill:#1B2351;" d="M385.063,268.429h-0.179c-1.021,0-1.848-0.828-1.848-1.848v-12.228 c0-1.021,0.828-1.848,1.848-1.848h0.179c1.021,0,1.848,0.827,1.848,1.848v12.228 C386.911,267.602,386.084,268.429,385.063,268.429z"/>
							<path style="fill:#1B2351;" d="M393.602,268.429h-0.179c-1.021,0-1.848-0.828-1.848-1.848v-12.228 c0-1.021,0.828-1.848,1.848-1.848h0.179c1.021,0,1.848,0.827,1.848,1.848v12.228 C395.45,267.602,394.623,268.429,393.602,268.429z"/>
						</g>
						<g>
							<rect x="361.777" y="156.292" style="fill:#1B2351;" width="4.045" height="5.847"/>
							<rect x="370.201" y="156.292" style="fill:#32EA9F;" width="4.045" height="5.847"/>
							<rect x="378.624" y="156.292" style="fill:#F6C543;" width="4.045" height="5.847"/>
							<rect x="387.048" y="156.292" style="fill:#ED7630;" width="4.045" height="5.847"/>
						</g>
						<g>
							<rect x="361.777" y="166.013" style="fill:#ED7630;" width="4.045" height="5.847"/>
							<rect x="370.201" y="166.013" style="fill:#1B2351;" width="4.045" height="5.847"/>
							<rect x="378.624" y="166.013" style="fill:#32EA9F;" width="4.045" height="5.847"/>
							<rect x="387.048" y="166.013" style="fill:#F6C543;" width="4.045" height="5.847"/>
						</g>
						<g>
							<rect x="361.777" y="175.734" style="fill:#1B2351;" width="4.045" height="5.847"/>
							<rect x="370.201" y="175.734" style="fill:#F6C543;" width="4.045" height="5.847"/>
							<rect x="378.624" y="175.734" style="fill:#32EA9F;" width="4.045" height="5.847"/>
							<rect x="387.048" y="175.734" style="fill:#1B2351;" width="4.045" height="5.847"/>
						</g>
						<g>
							<rect x="361.777" y="185.455" style="fill:#32EA9F;" width="4.045" height="5.847"/>
							<rect x="370.201" y="185.455" style="fill:#ED7630;" width="4.045" height="5.847"/>
							<rect x="378.624" y="185.455" style="fill:#1B2351;" width="4.045" height="5.847"/>
							<rect x="387.048" y="185.455" style="fill:#32EA9F;" width="4.045" height="5.847"/>
						</g>
						<g>
							<rect x="361.777" y="195.176" style="fill:#1B2351;" width="4.045" height="5.847"/>
							<rect x="370.201" y="195.176" style="fill:#32EA9F;" width="4.045" height="5.847"/>
							<rect x="378.624" y="195.176" style="fill:#F6C543;" width="4.045" height="5.847"/>
							<rect x="387.048" y="195.176" style="fill:#ED7630;" width="4.045" height="5.847"/>
						</g>
						<g>
							<rect x="361.777" y="204.897" style="fill:#ED7630;" width="4.045" height="5.847"/>
							<rect x="370.201" y="204.897" style="fill:#F6C543;" width="4.045" height="5.847"/>
							<rect x="378.624" y="204.897" style="fill:#32EA9F;" width="4.045" height="5.847"/>
							<rect x="387.048" y="204.897" style="fill:#1B2351;" width="4.045" height="5.847"/>
						</g>
					</g>
					<rect x="363.799" y="216.295" style="fill:#3F8ACE;" width="25.271" height="7.539"/>
				</g>
				<g>
					<g>
						<path style="fill:#3F8ACE;" d="M420.884,274.44h38.43c2.327,0,4.214-1.886,4.214-4.214V145.973H416.67v124.254 C416.67,272.554,418.557,274.44,420.884,274.44z"/>
						<path style="fill:#215191;" d="M424.52,245.815h31.157c1.898,0,3.438-1.539,3.438-3.438v-96.404h-38.031v96.404 C421.083,244.276,422.622,245.815,424.52,245.815z"/>
						<g>
							<path style="fill:#1B2351;" d="M457.087,268.429h0.179c1.021,0,1.848-0.828,1.848-1.848v-12.228 c0-1.021-0.827-1.848-1.848-1.848h-0.179c-1.021,0-1.848,0.827-1.848,1.848v12.228 C455.239,267.602,456.066,268.429,457.087,268.429z"/>
							<path style="fill:#1B2351;" d="M448.548,268.429h0.179c1.021,0,1.848-0.828,1.848-1.848v-12.228 c0-1.021-0.828-1.848-1.848-1.848h-0.179c-1.021,0-1.848,0.827-1.848,1.848v12.228 C446.7,267.602,447.527,268.429,448.548,268.429z"/>
							<path style="fill:#1B2351;" d="M440.009,268.429h0.179c1.021,0,1.848-0.828,1.848-1.848v-12.228 c0-1.021-0.827-1.848-1.848-1.848h-0.179c-1.021,0-1.848,0.827-1.848,1.848v12.228 C438.161,267.602,438.988,268.429,440.009,268.429z"/>
							<path style="fill:#1B2351;" d="M431.47,268.429h0.179c1.021,0,1.848-0.828,1.848-1.848v-12.228 c0-1.021-0.827-1.848-1.848-1.848h-0.179c-1.021,0-1.848,0.827-1.848,1.848v12.228 C429.622,267.602,430.449,268.429,431.47,268.429z"/>
							<path style="fill:#1B2351;" d="M422.931,268.429h0.179c1.021,0,1.848-0.828,1.848-1.848v-12.228 c0-1.021-0.827-1.848-1.848-1.848h-0.179c-1.021,0-1.848,0.827-1.848,1.848v12.228 C421.083,267.602,421.91,268.429,422.931,268.429z"/>
						</g>
						<g>
							<rect x="450.711" y="156.292" transform="matrix(-1 -1.224647e-16 1.224647e-16 -1 905.4677 318.4314)" style="fill:#1B2351;" width="4.045" height="5.847"/>
							<rect x="442.288" y="156.292" transform="matrix(-1 -1.224647e-16 1.224647e-16 -1 888.6205 318.4314)" style="fill:#32EA9F;" width="4.045" height="5.847"/>
							<rect x="433.864" y="156.292" transform="matrix(-1 -1.224647e-16 1.224647e-16 -1 871.7733 318.4314)" style="fill:#F6C543;" width="4.045" height="5.847"/>
							<rect x="425.441" y="156.292" transform="matrix(-1 -1.224647e-16 1.224647e-16 -1 854.9261 318.4314)" style="fill:#ED7630;" width="4.045" height="5.847"/>
						</g>
						<g>
							<rect x="450.711" y="166.013" transform="matrix(-1 -1.224647e-16 1.224647e-16 -1 905.4677 337.8731)" style="fill:#ED7630;" width="4.045" height="5.847"/>
							<rect x="442.288" y="166.013" transform="matrix(-1 -1.224647e-16 1.224647e-16 -1 888.6205 337.8731)" style="fill:#1B2351;" width="4.045" height="5.847"/>
							<rect x="433.864" y="166.013" transform="matrix(-1 -1.224647e-16 1.224647e-16 -1 871.7733 337.8731)" style="fill:#32EA9F;" width="4.045" height="5.847"/>
							<rect x="425.441" y="166.013" transform="matrix(-1 -1.224647e-16 1.224647e-16 -1 854.9261 337.8731)" style="fill:#F6C543;" width="4.045" height="5.847"/>
						</g>
						<g>
							<rect x="450.711" y="175.734" transform="matrix(-1 -1.224647e-16 1.224647e-16 -1 905.4677 357.3149)" style="fill:#1B2351;" width="4.045" height="5.847"/>
							<rect x="442.288" y="175.734" transform="matrix(-1 -1.224647e-16 1.224647e-16 -1 888.6205 357.3149)" style="fill:#F6C543;" width="4.045" height="5.847"/>
							<rect x="433.864" y="175.734" transform="matrix(-1 -1.224647e-16 1.224647e-16 -1 871.7733 357.3149)" style="fill:#32EA9F;" width="4.045" height="5.847"/>
							<rect x="425.441" y="175.734" transform="matrix(-1 -1.224647e-16 1.224647e-16 -1 854.9261 357.3149)" style="fill:#1B2351;" width="4.045" height="5.847"/>
						</g>
						<g>
							<rect x="450.711" y="185.455" transform="matrix(-1 -1.224647e-16 1.224647e-16 -1 905.4677 376.7566)" style="fill:#32EA9F;" width="4.045" height="5.847"/>
							<rect x="442.288" y="185.455" transform="matrix(-1 -1.224647e-16 1.224647e-16 -1 888.6205 376.7566)" style="fill:#ED7630;" width="4.045" height="5.847"/>
							<rect x="433.864" y="185.455" transform="matrix(-1 -1.224647e-16 1.224647e-16 -1 871.7733 376.7566)" style="fill:#1B2351;" width="4.045" height="5.847"/>
							<rect x="425.441" y="185.455" transform="matrix(-1 -1.224647e-16 1.224647e-16 -1 854.9261 376.7566)" style="fill:#32EA9F;" width="4.045" height="5.847"/>
						</g>
						<g>
							<rect x="450.711" y="195.176" transform="matrix(-1 -1.224647e-16 1.224647e-16 -1 905.4677 396.1983)" style="fill:#1B2351;" width="4.045" height="5.847"/>
							<rect x="442.288" y="195.176" transform="matrix(-1 -1.224647e-16 1.224647e-16 -1 888.6205 396.1983)" style="fill:#32EA9F;" width="4.045" height="5.847"/>
							<rect x="433.864" y="195.176" transform="matrix(-1 -1.224647e-16 1.224647e-16 -1 871.7733 396.1983)" style="fill:#F6C543;" width="4.045" height="5.847"/>
							<rect x="425.441" y="195.176" transform="matrix(-1 -1.224647e-16 1.224647e-16 -1 854.9261 396.1983)" style="fill:#ED7630;" width="4.045" height="5.847"/>
						</g>
						<g>
							<rect x="450.711" y="204.897" transform="matrix(-1 -1.224647e-16 1.224647e-16 -1 905.4677 415.64)" style="fill:#ED7630;" width="4.045" height="5.847"/>
							<rect x="442.288" y="204.897" transform="matrix(-1 -1.224647e-16 1.224647e-16 -1 888.6205 415.64)" style="fill:#F6C543;" width="4.045" height="5.847"/>
							<rect x="433.864" y="204.897" transform="matrix(-1 -1.224647e-16 1.224647e-16 -1 871.7733 415.64)" style="fill:#32EA9F;" width="4.045" height="5.847"/>
							<rect x="425.441" y="204.897" transform="matrix(-1 -1.224647e-16 1.224647e-16 -1 854.9261 415.64)" style="fill:#1B2351;" width="4.045" height="5.847"/>
						</g>
					</g>
					<rect x="427.463" y="216.295" transform="matrix(-1 -1.224647e-16 1.224647e-16 -1 880.1968 440.1289)" style="fill:#3F8ACE;" width="25.271" height="7.539"/>
				</g>
			</g>
			<g>
				<path style="fill:#D5F0FE;" d="M455.735,356.048h-0.108c-0.959,0-1.654-0.869-1.497-1.816c0.274-1.644,0.296-3.371,0.019-5.15 c-1.119-7.195-7.139-12.827-14.392-13.469c-1.913-0.169-3.754-0.007-5.476,0.443c-1.747-13.984-13.688-24.816-28.153-24.816 c-13.06,0-24.058,8.827-27.358,20.832c-9.446,1.497-16.655,9.677-16.655,19.539c0,0.913,0.063,1.813,0.185,2.694 c0.128,0.921-0.573,1.742-1.503,1.742l0,0c-1.691,0-3.208,1.267-3.296,2.956c-0.094,1.801,1.339,3.292,3.119,3.292h95.29 c1.781,0,3.214-1.49,3.119-3.292C458.942,357.315,457.426,356.048,455.735,356.048z"/>
				<g>
					<path style="fill:#9DBFF3;" d="M421.353,337.51h-33.608c-0.846,0-1.531-0.685-1.531-1.531v-0.148 c0-0.845,0.685-1.531,1.531-1.531h33.608c0.845,0,1.531,0.685,1.531,1.531v0.148C422.884,336.825,422.198,337.51,421.353,337.51 z"/>
					<path style="fill:#9DBFF3;" d="M421.353,344.585h-33.608c-0.846,0-1.531-0.685-1.531-1.531v-0.148 c0-0.845,0.685-1.531,1.531-1.531h33.608c0.845,0,1.531,0.685,1.531,1.531v0.148 C422.884,343.899,422.198,344.585,421.353,344.585z"/>
					<path style="fill:#9DBFF3;" d="M421.353,351.659h-33.608c-0.846,0-1.531-0.685-1.531-1.531v-0.148 c0-0.846,0.685-1.531,1.531-1.531h33.608c0.845,0,1.531,0.685,1.531,1.531v0.148 C422.884,350.973,422.198,351.659,421.353,351.659z"/>
				</g>
			</g>
			<g>
				<line style="fill:none;stroke:#9DBFF3;stroke-width:2;stroke-linecap:round;stroke-linejoin:round;stroke-miterlimit:10;stroke-dasharray:0,4;" x1="408.345" y1="294.893" x2="408.345" y2="315.685"/>
				<g>
					<g>
						<line style="fill:none;stroke:#9DBFF3;stroke-width:2;stroke-linecap:round;stroke-linejoin:round;" x1="376.435" y1="280.486" x2="376.435" y2="280.486"/>
						<line style="fill:none;stroke:#9DBFF3;stroke-width:2;stroke-linecap:round;stroke-linejoin:round;stroke-dasharray:0,3.6019;" x1="376.435" y1="284.088" x2="376.435" y2="293.092"/>
						<line style="fill:none;stroke:#9DBFF3;stroke-width:2;stroke-linecap:round;stroke-linejoin:round;" x1="376.435" y1="294.893" x2="376.435" y2="294.893"/>
						<line style="fill:none;stroke:#9DBFF3;stroke-width:2;stroke-linecap:round;stroke-linejoin:round;stroke-dasharray:0,3.979;" x1="380.414" y1="294.893" x2="438.109" y2="294.893"/>
						<line style="fill:none;stroke:#9DBFF3;stroke-width:2;stroke-linecap:round;stroke-linejoin:round;" x1="440.098" y1="294.893" x2="440.098" y2="294.893"/>
						<line style="fill:none;stroke:#9DBFF3;stroke-width:2;stroke-linecap:round;stroke-linejoin:round;stroke-dasharray:0,3.6019;" x1="440.098" y1="291.292" x2="440.098" y2="282.287"/>
						<line style="fill:none;stroke:#9DBFF3;stroke-width:2;stroke-linecap:round;stroke-linejoin:round;" x1="440.098" y1="280.486" x2="440.098" y2="280.486"/>
					</g>
				</g>
			</g>
		</g>
		<g>
			<g>
				<path style="fill:#9DBFF3;" d="M172.717,357.689H50.712c-7.864,0-14.239-6.375-14.239-14.239v-90.073h150.482v90.073 C186.956,351.314,180.581,357.689,172.717,357.689z"/>
				<rect x="36.473" y="240.303" style="fill:#1B2351;" width="150.482" height="13.074"/>
				<g>
					<path style="fill:#ED7630;" d="M48.168,246.84c0-1.495-1.212-2.706-2.706-2.706c-1.494,0-2.706,1.212-2.706,2.706 c0,1.495,1.212,2.706,2.706,2.706C46.956,249.546,48.168,248.335,48.168,246.84z"/>
					<path style="fill:#F6C543;" d="M58.812,246.84c0-1.495-1.212-2.706-2.706-2.706c-1.495,0-2.706,1.212-2.706,2.706 c0,1.495,1.212,2.706,2.706,2.706C57.601,249.546,58.812,248.335,58.812,246.84z"/>
					<path style="fill:#32EA9F;" d="M69.456,246.84c0-1.495-1.212-2.706-2.706-2.706c-1.495,0-2.706,1.212-2.706,2.706 c0,1.495,1.212,2.706,2.706,2.706C68.245,249.546,69.456,248.335,69.456,246.84z"/>
				</g>
				<g>
					<rect x="47.546" y="263.874" style="fill:#FFFFFF;" width="128.336" height="37.081"/>
					<g>
						<path style="fill:#3F8ACE;" d="M47.546,292.327v-2.107c18.232-2.107,34.987-12.171,43.604-26.345h2.692 C84.997,279.243,67.017,290.146,47.546,292.327z"/>
						<path style="fill:#3F8ACE;" d="M103.878,275.092c-2.103,1.027-4.327,1.877-6.49,2.694c-3.738,1.426-7.259,2.768-10.18,4.959 c-4.038,3.04-6.502,7.632-6.586,12.276c-0.036,2.023,0.373,4.036,1.19,5.934h-2.548c-0.709-1.919-1.082-3.942-1.046-5.965 c0.096-5.242,2.86-10.41,7.416-13.828c3.197-2.401,7.055-3.868,10.793-5.294c2.103-0.807,4.279-1.636,6.274-2.611 c4.603-2.254,8.63-5.525,11.562-9.383h2.836C113.914,268.497,109.263,272.45,103.878,275.092z"/>
						<path style="fill:#3F8ACE;" d="M148.84,269.399c-0.841,4.707-4.038,9.11-8.569,11.763c-4.267,2.516-9.339,3.438-14.242,4.33 l-0.445,0.084c-5.024,0.923-9.855,1.95-13.545,4.477c-3.437,2.338-5.985,6.668-4.207,10.421 c0.084,0.168,0.168,0.325,0.264,0.482h-2.62c-1.971-4.634,1.022-9.792,5.084-12.559c4.098-2.799,9.218-3.9,14.531-4.875 l0.445-0.073c4.675-0.86,9.519-1.74,13.389-4.015c3.99-2.348,6.803-6.217,7.548-10.358c0.301-1.719,0.253-3.48-0.132-5.2h2.452 C149.141,265.698,149.165,267.575,148.84,269.399z"/>
						<path style="fill:#3F8ACE;" d="M175.883,272.754v2.327c-0.649,0.262-1.31,0.472-1.995,0.629 c-2.86,0.671-5.865,0.587-8.762,0.514c-3.786-0.094-7.367-0.189-10.336,1.331c-2.56,1.3-4.531,3.743-6.009,7.485 c-1.106,2.778-1.142,4.791-0.096,6.164c1.394,1.824,4.11,2.055,7.259,2.327c2.945,0.262,5.997,0.524,8.305,2.233 c1.563,1.153,2.476,2.789,2.656,4.728c0.012,0.157,0.024,0.304,0.024,0.461h-2.416c0-0.094,0-0.189-0.012-0.294 c-0.12-1.394-0.733-2.506-1.815-3.302c-1.731-1.279-4.279-1.499-6.983-1.74c-3.438-0.293-6.995-0.598-9.026-3.26 c-1.478-1.95-1.538-4.571-0.168-8.009c1.683-4.225,3.99-7.045,7.067-8.607c3.57-1.814,7.656-1.709,11.622-1.615 c2.728,0.073,5.553,0.147,8.076-0.44C174.176,273.477,175.053,273.163,175.883,272.754z"/>
					</g>
				</g>
				<g>
					<rect x="48.168" y="310.28" style="fill:#3F8ACE;" width="52.515" height="36.249"/>
					<g>
						<path style="fill:#FFFFFF;" d="M91.542,322.274H57.31c-1.271,0-2.301-1.03-2.301-2.301v-0.223c0-1.271,1.03-2.301,2.301-2.301 h34.232c1.271,0,2.301,1.03,2.301,2.301v0.223C93.843,321.244,92.812,322.274,91.542,322.274z"/>
						<path style="fill:#FFFFFF;" d="M91.542,330.59H57.31c-1.271,0-2.301-1.03-2.301-2.301v-0.223c0-1.271,1.03-2.301,2.301-2.301 h34.232c1.271,0,2.301,1.03,2.301,2.301v0.223C93.843,329.559,92.812,330.59,91.542,330.59z"/>
						<path style="fill:#FFFFFF;" d="M77.947,338.905H57.31c-1.271,0-2.301-1.03-2.301-2.301v-0.223c0-1.271,1.03-2.301,2.301-2.301 h20.637c1.271,0,2.301,1.03,2.301,2.301v0.223C80.247,337.875,79.217,338.905,77.947,338.905z"/>
					</g>
				</g>
				<g>
					<rect x="108.587" y="310.28" transform="matrix(-1 -1.224647e-16 1.224647e-16 -1 284.4693 656.8085)" style="fill:#1B2351;" width="67.296" height="36.249"/>
					<polygon style="fill:#F5C544;" points="119.812,338.905 164.657,338.905 154.253,321.63 145.643,333.11 133.983,314.813 &#9;&#9;&#9;&#9;"/>
				</g>
			</g>
			<g>
				<path style="fill:#D5F0FE;" d="M113.801,155.37l-3.266-4.79H83.089l-3.266,4.79v34.364c0,3.055,2.476,5.531,5.531,5.531h52.722 c3.055,0,5.531-2.476,5.531-5.531V160.9c0-3.055-2.476-5.531-5.531-5.531H113.801z"/>
				<g>
					<path style="fill:#9DBFF3;" d="M128.518,170.424H94.91c-0.845,0-1.531-0.685-1.531-1.531v-0.148 c0-0.846,0.685-1.531,1.531-1.531h33.608c0.846,0,1.531,0.685,1.531,1.531v0.148 C130.049,169.739,129.364,170.424,128.518,170.424z"/>
					<path style="fill:#9DBFF3;" d="M128.518,177.499H94.91c-0.845,0-1.531-0.685-1.531-1.531v-0.148 c0-0.846,0.685-1.531,1.531-1.531h33.608c0.846,0,1.531,0.685,1.531,1.531v0.148 C130.049,176.813,129.364,177.499,128.518,177.499z"/>
					<path style="fill:#9DBFF3;" d="M128.518,184.573H94.91c-0.845,0-1.531-0.685-1.531-1.531v-0.148 c0-0.846,0.685-1.531,1.531-1.531h33.608c0.846,0,1.531,0.685,1.531,1.531v0.148 C130.049,183.887,129.364,184.573,128.518,184.573z"/>
				</g>
			</g>
			<line style="fill:none;stroke:#9DBFF3;stroke-width:2;stroke-linecap:round;stroke-linejoin:round;stroke-miterlimit:10;stroke-dasharray:0,4;" x1="111.714" y1="196.789" x2="111.714" y2="239.73"/>
		</g>
		<g>
			<path style="fill:#215191;" d="M315.717,351.255h-33.961c-7.591,0-13.745-6.154-13.745-13.744l0,0 c0-7.591,6.154-13.745,13.745-13.745h33.961c7.591,0,13.744,6.154,13.744,13.745l0,0 C329.461,345.101,323.308,351.255,315.717,351.255z"/>
			<g>
				<path style="fill:#FEFEFE;" d="M287.307,332.493v10.034h-2.838v-3.913h-3.87v3.913h-2.838v-10.034h2.838v3.771h3.87v-3.771 H287.307z"/>
				<path style="fill:#FEFEFE;" d="M291.448,334.744h-3.082v-2.251h8.988v2.251h-3.068v7.784h-2.838V334.744z"/>
				<path style="fill:#FEFEFE;" d="M307.472,342.527l-0.028-5.318l-2.58,4.329h-1.261l-2.566-4.185v5.175h-2.623v-10.034h2.336 l3.527,5.791l3.44-5.791h2.336l0.029,10.034H307.472z"/>
				<path style="fill:#FEFEFE;" d="M312.086,332.493h2.838v7.784h4.788v2.25h-7.626V332.493z"/>
			</g>
		</g>
		<g>
			<g>
				<path style="fill:#3F8ACE;" d="M148.719,374.846c0-2.223-1.802-4.024-4.024-4.024c-2.222,0-4.024,1.802-4.024,4.024 c0,2.222,1.802,4.024,4.024,4.024C146.917,378.871,148.719,377.069,148.719,374.846z"/>
				<path style="fill:#3F8ACE;" d="M172.346,374.846c0-2.223-1.802-4.024-4.024-4.024c-2.222,0-4.024,1.802-4.024,4.024 c0,2.222,1.802,4.024,4.024,4.024C170.545,378.871,172.346,377.069,172.346,374.846z"/>
				<path style="fill:#3F8ACE;" d="M195.974,374.846c0-2.223-1.802-4.024-4.024-4.024c-2.222,0-4.024,1.802-4.024,4.024 c0,2.222,1.802,4.024,4.024,4.024C194.172,378.871,195.974,377.069,195.974,374.846z"/>
			</g>
			<g>
				<path style="fill:#9DBFF3;" d="M365.37,129.014c0-2.222-1.802-4.024-4.024-4.024s-4.024,1.802-4.024,4.024 c0,2.222,1.802,4.024,4.024,4.024S365.37,131.236,365.37,129.014z"/>
				<path style="fill:#9DBFF3;" d="M388.998,129.014c0-2.222-1.802-4.024-4.024-4.024c-2.222,0-4.024,1.802-4.024,4.024 c0,2.222,1.802,4.024,4.024,4.024C387.196,133.038,388.998,131.236,388.998,129.014z"/>
				<path style="fill:#9DBFF3;" d="M412.625,129.014c0-2.222-1.802-4.024-4.024-4.024c-2.222,0-4.024,1.802-4.024,4.024 c0,2.222,1.802,4.024,4.024,4.024C410.824,133.038,412.625,131.236,412.625,129.014z"/>
			</g>
		</g>
		<g>
			<g>
				<line style="fill:none;stroke:#3F8ACE;stroke-width:2;stroke-linecap:round;stroke-linejoin:round;stroke-miterlimit:10;" x1="334.523" y1="188.245" x2="334.523" y2="195.805"/>
				<line style="fill:none;stroke:#3F8ACE;stroke-width:2;stroke-linecap:round;stroke-linejoin:round;stroke-miterlimit:10;" x1="338.303" y1="192.025" x2="330.743" y2="192.025"/>
			</g>
			<g>
				<line style="fill:none;stroke:#3F8ACE;stroke-width:2;stroke-linecap:round;stroke-linejoin:round;stroke-miterlimit:10;" x1="212.078" y1="313.09" x2="212.078" y2="320.65"/>
				<line style="fill:none;stroke:#3F8ACE;stroke-width:2;stroke-linecap:round;stroke-linejoin:round;stroke-miterlimit:10;" x1="215.858" y1="316.87" x2="208.298" y2="316.87"/>
			</g>
			<g>
				<line style="fill:none;stroke:#9DBFF3;stroke-width:2;stroke-linecap:round;stroke-linejoin:round;stroke-miterlimit:10;" x1="344.012" y1="311.033" x2="344.012" y2="318.593"/>
				<line style="fill:none;stroke:#9DBFF3;stroke-width:2;stroke-linecap:round;stroke-linejoin:round;stroke-miterlimit:10;" x1="347.792" y1="314.813" x2="340.232" y2="314.813"/>
			</g>
			<g>
				<line style="fill:none;stroke:#9DBFF3;stroke-width:2;stroke-linecap:round;stroke-linejoin:round;stroke-miterlimit:10;" x1="172.102" y1="220.054" x2="172.102" y2="227.614"/>
				<line style="fill:none;stroke:#9DBFF3;stroke-width:2;stroke-linecap:round;stroke-linejoin:round;stroke-miterlimit:10;" x1="175.883" y1="223.834" x2="168.322" y2="223.834"/>
			</g>
		</g>
		<g>
			<g>
				<path style="fill:#1B2351;" d="M312.306,300.881h-84.651c-5.278,0-9.556-4.278-9.556-9.556v-74.381 c0-5.278,4.278-9.556,9.556-9.556h84.651c5.278,0,9.556,4.278,9.556,9.556v74.381 C321.862,296.602,317.584,300.881,312.306,300.881z"/>
				<path style="fill:none;stroke:#9DBFF3;stroke-linecap:round;stroke-linejoin:round;stroke-miterlimit:10;" d="M307.984,294.654 h-76.007c-3.848,0-6.967-3.119-6.967-6.967v-67.105c0-3.848,3.119-6.967,6.967-6.967h77.477c3.035,0,5.496,2.461,5.496,5.496 v68.575C314.951,291.534,311.832,294.654,307.984,294.654z"/>
				<g>
					<g>
						<rect x="283.674" y="192.509" transform="matrix(-1 -1.224647e-16 1.224647e-16 -1 572.2718 399.8968)" style="fill:#3F8ACE;" width="4.923" height="14.879"/>
						<rect x="272.904" y="192.509" transform="matrix(-1 -1.224647e-16 1.224647e-16 -1 550.732 399.8968)" style="fill:#3F8ACE;" width="4.923" height="14.879"/>
						<rect x="262.134" y="192.509" transform="matrix(-1 -1.224647e-16 1.224647e-16 -1 529.1923 399.8968)" style="fill:#3F8ACE;" width="4.924" height="14.879"/>
						<rect x="251.365" y="192.509" transform="matrix(-1 -1.224647e-16 1.224647e-16 -1 507.6526 399.8968)" style="fill:#3F8ACE;" width="4.923" height="14.879"/>
					</g>
					<g>
						<rect x="251.365" y="300.881" style="fill:#3F8ACE;" width="4.923" height="14.879"/>
						<rect x="262.134" y="300.881" style="fill:#3F8ACE;" width="4.924" height="14.879"/>
						<rect x="272.904" y="300.881" style="fill:#3F8ACE;" width="4.923" height="14.879"/>
						<rect x="283.674" y="300.881" style="fill:#3F8ACE;" width="4.923" height="14.879"/>
					</g>
				</g>
				<g>
					<g>
						<rect x="208.199" y="230.54" transform="matrix(-1.836970e-16 1 -1 -1.836970e-16 448.6396 27.319)" style="fill:#1B2351;" width="4.923" height="14.879"/>
						<rect x="208.199" y="241.31" transform="matrix(-1.836970e-16 1 -1 -1.836970e-16 459.4095 38.0889)" style="fill:#1B2351;" width="4.923" height="14.879"/>
						<rect x="208.199" y="252.08" transform="matrix(-1.836970e-16 1 -1 -1.836970e-16 470.1794 48.8587)" style="fill:#1B2351;" width="4.924" height="14.879"/>
						<rect x="208.199" y="262.85" transform="matrix(-1.836970e-16 1 -1 -1.836970e-16 480.9493 59.6286)" style="fill:#1B2351;" width="4.924" height="14.879"/>
					</g>
					<g>
						<rect x="326.84" y="262.85" transform="matrix(6.123234e-17 -1 1 6.123234e-17 59.0128 599.5908)" style="fill:#1B2351;" width="4.924" height="14.879"/>
						<rect x="326.84" y="252.08" transform="matrix(6.123234e-17 -1 1 6.123234e-17 69.7827 588.8209)" style="fill:#1B2351;" width="4.924" height="14.879"/>
						<rect x="326.84" y="241.31" transform="matrix(6.123234e-17 -1 1 6.123234e-17 80.5526 578.051)" style="fill:#1B2351;" width="4.923" height="14.879"/>
						<rect x="326.84" y="230.54" transform="matrix(6.123234e-17 -1 1 6.123234e-17 91.3225 567.2811)" style="fill:#1B2351;" width="4.923" height="14.879"/>
					</g>
				</g>
			</g>
			<g>
				<path style="fill:#FFFFFF;" d="M255.695,263.01h-12.278l-2.281,5.641h-8.379l12.817-29.035h8.088l12.859,29.035h-8.545 L255.695,263.01z M253.289,256.955l-3.733-9.291l-3.733,9.291H253.289z"/>
				<path style="fill:#FFFFFF;" d="M295.013,250.36c0,6.595-4.977,10.702-12.899,10.702h-5.061v7.59h-8.212v-29.035h13.273 C290.036,239.617,295.013,243.723,295.013,250.36z M286.718,250.36c0-2.696-1.701-4.272-5.103-4.272h-4.562v8.503h4.562 C285.017,254.59,286.718,253.014,286.718,250.36z"/>
				<path style="fill:#FFFFFF;" d="M298.993,239.617h8.212v29.035h-8.212V239.617z"/>
			</g>
		</g>
		<g>
			<g>
				<line style="fill:none;stroke:#9DBFF3;stroke-width:2;stroke-linecap:round;stroke-linejoin:round;" x1="241.22" y1="300.881" x2="241.22" y2="300.881"/>
				<line style="fill:none;stroke:#9DBFF3;stroke-width:2;stroke-linecap:round;stroke-linejoin:round;stroke-dasharray:0,4.1775;" x1="241.22" y1="305.058" x2="241.22" y2="332.212"/>
				<line style="fill:none;stroke:#9DBFF3;stroke-width:2;stroke-linecap:round;stroke-linejoin:round;" x1="241.22" y1="334.3" x2="241.22" y2="334.3"/>
				<line style="fill:none;stroke:#9DBFF3;stroke-width:2;stroke-linecap:round;stroke-linejoin:round;stroke-dasharray:0,3.876;" x1="237.344" y1="334.3" x2="188.894" y2="334.3"/>
				<line style="fill:none;stroke:#9DBFF3;stroke-width:2;stroke-linecap:round;stroke-linejoin:round;" x1="186.956" y1="334.3" x2="186.956" y2="334.3"/>
			</g>
		</g>
		<g>
			<g>
				<line style="fill:none;stroke:#9DBFF3;stroke-width:2;stroke-linecap:round;stroke-linejoin:round;" x1="298.736" y1="207.388" x2="298.736" y2="207.388"/>
				<line style="fill:none;stroke:#9DBFF3;stroke-width:2;stroke-linecap:round;stroke-linejoin:round;stroke-dasharray:0,4.1633;" x1="298.736" y1="203.224" x2="298.736" y2="176.163"/>
				<line style="fill:none;stroke:#9DBFF3;stroke-width:2;stroke-linecap:round;stroke-linejoin:round;" x1="298.736" y1="174.081" x2="298.736" y2="174.081"/>
				<line style="fill:none;stroke:#9DBFF3;stroke-width:2;stroke-linecap:round;stroke-linejoin:round;stroke-dasharray:0,3.876;" x1="302.612" y1="174.081" x2="351.062" y2="174.081"/>
				<line style="fill:none;stroke:#9DBFF3;stroke-width:2;stroke-linecap:round;stroke-linejoin:round;" x1="353" y1="174.081" x2="353" y2="174.081"/>
			</g>
		</g>
	</g>
</svg>