<?xml version="1.0" encoding="utf-8"?>
<svg viewBox="15 50 470 430" style="enable-background:new 0 0 500 500;"
	xmlns="http://www.w3.org/2000/svg">
	<g id="Floor" transform="matrix(0.9999999999999999, 0, 0, 0.9999999999999999, 0, 3.552713678800501e-15)">
		<path id="Floor_14_" style="fill: rgba(134, 134, 134, 0.384);" d="M91.46,439.025c88.758,45.379,232.662,45.38,321.419,0.001 c88.758-45.38,88.758-118.954,0-164.334c-88.758-45.38-232.662-45.38-321.42-0.001C2.701,320.07,2.701,393.646,91.46,439.025z"/>
	</g>
	<g id="Shadows" transform="matrix(0.9999999999999999, 0, 0, 0.9999999999999999, 0, 3.552713678800501e-15)">
		<polyline id="Shadow_34_" style="fill: rgba(36, 36, 36, 0.17);" points="148.527,388.865 100.608,361.39 163.751,325.877 148.819,389.371 &#9;"/>
		<path id="Shadow_24_" style="fill: rgba(41, 41, 41, 0.12);" d="M 452.225 367.494 C 433.682 377.575 403.618 377.575 385.076 367.494 C 366.533 357.416 366.533 341.073 385.076 330.993 C 403.619 320.915 433.682 320.915 452.225 330.993 C 470.768 341.073 470.768 357.416 452.225 367.494 Z"/>
		<path id="Shadow_33_" style="fill: rgba(46, 46, 46, 0.106);" d="M 236.617 364.252 L 279.287 388.887 C 282.12 390.522 286.713 390.522 289.545 388.887 L 375.521 339.25 C 378.354 337.615 378.354 334.963 375.521 333.327 L 332.851 308.691 C 330.018 307.056 325.425 307.055 322.593 308.691 L 236.617 358.329 C 233.785 359.965 233.785 362.616 236.617 364.252 Z"/>
	</g>
	<g id="Plants" transform="matrix(0.9999999999999999, 0, 0, 0.9999999999999999, 0, 3.552713678800501e-15)">
		<g id="Plants_11_">
			<g id="XMLID_2997_">
				<g id="XMLID_3006_">
					<path id="XMLID_3007_" style="fill:#27DEBF;" d="M78.517,345.412c-0.626-7.775-4.185-20.546-13.225-32.699 c-9.675-13.005-21.469-21.145-30.232-17.338c-8.162,3.546-5.067,14.809,8.978,25.92c9.855,7.797,20.076,17.941,25.568,30.193 l8.911,15.589V345.412z"/>
				</g>
				<g id="XMLID_3004_" style="opacity:0.1;">
					<path id="XMLID_3005_" d="M78.517,345.412c-0.626-7.775-4.185-20.546-13.225-32.699c-9.675-13.005-21.469-21.145-30.232-17.338 c-8.162,3.546-5.067,14.809,8.978,25.92c9.855,7.797,20.076,17.941,25.568,30.193l8.911,15.589V345.412z"/>
				</g>
				<g id="XMLID_3002_">
					<path id="XMLID_3003_" style="fill:#FFFFFF;" d="M77.728,351.338c-0.226,0-0.438-0.139-0.519-0.364 c-7.829-21.555-24.132-43.367-37.921-50.735c-0.27-0.145-0.371-0.479-0.228-0.748c0.146-0.271,0.479-0.37,0.748-0.228 c14.003,7.483,30.528,29.551,38.439,51.333c0.105,0.287-0.043,0.604-0.33,0.708C77.854,351.327,77.791,351.338,77.728,351.338z"/>
				</g>
				<g id="XMLID_2998_">
					<path id="XMLID_3001_" style="fill:#27DEBF;" d="M77.729,371.981c0,0-5.771,5.124-15.599,6.68 c-9.828,1.556-14.166-3.144-14.166-3.144s3.87-9.218,9.451-11.804c0,0-9.462,1.928-17.057,6.996c0,0-6.001,0.091-8.39-9.068 c0,0,3.556-5.512,15.486-8.49c0,0-7.258-1.827-17.717,0.841c-0.784,0.312-4.128-11.531-5.139-16.995s1.184-5.406,5.444-6.543 c4.259-1.137,18.764-1.852,21.43,0.491c2.667,2.343,4.021,10.353,4.021,10.353s2.55-4.533,1.939-8.579 c0,0,4.277-1.451,9.062,0.217c4.785,1.668,4.481,4,4.481,7.482c0,3.723-0.368,6.196-1.433,10.368c0,0,3.304-2.859,3.421-13.399 c0,0,6.467,5.535,9.064,10.292S83.966,364.882,77.729,371.981z"/>
					<g id="XMLID_2999_">
						<path id="XMLID_3000_" style="fill:#FFFFFF;" d="M77.728,372.533c-0.205,0-0.403-0.115-0.498-0.313 c-7.931-16.477-37.417-35.623-47.979-37.677c-0.299-0.058-0.495-0.349-0.437-0.649c0.058-0.3,0.352-0.492,0.649-0.437 C40.199,335.546,70.17,355,78.226,371.741c0.133,0.275,0.017,0.605-0.258,0.737C77.89,372.516,77.809,372.533,77.728,372.533z"/>
					</g>
				</g>
			</g>
		</g>
	</g>
	<g id="Documents" transform="matrix(0.9999999999999999, 0, 0, 0.9999999999999999, 0, 3.552713678800501e-15)">
		<g id="Folder_1_">
			<g id="XMLID_2960_">
				<polygon id="XMLID_3092_" style="fill:#097880;" points="75.689,197.198 75.689,376.719 243.222,279.994 243.222,117.975 &#10;&#9;&#9;&#9;&#9;128.776,183.986 124.48,168.965 &#9;&#9;&#9;"/>
			</g>
			<g id="XMLID_2956_">
				<polygon id="XMLID_2958_" style="fill:#F0F0F0;" points="75.689,376.719 84.28,219.08 251.812,122.355 243.222,279.994 &#9;&#9;&#9;"/>
			</g>
			<g id="XMLID_2933_">
				<polygon id="XMLID_2954_" style="fill:#10a5b0;" points="75.689,376.719 90.857,223.47 258.389,126.745 243.222,279.994 &#9;&#9;&#9;"/>
			</g>
		</g>
		<g id="XMLID_2854_">
			<g id="XMLID_2932_">
				<g id="XMLID_2965_">
					<path id="XMLID_2966_" style="fill:#FAFAFA;" d="M148.208,389.568c-0.465,0-0.535-0.538-0.535-0.859V158.071 c0-1.083,0.792-2.454,1.729-2.995l161.855-93.389c0.225-0.129,0.435-0.198,0.611-0.198c0.466,0,0.535,0.538,0.535,0.859v230.638 c0,1.083-0.792,2.455-1.73,2.995l-161.855,93.389C148.594,389.5,148.383,389.568,148.208,389.568z"/>
				</g>
				<g id="XMLID_2961_">
					<path id="XMLID_2962_" style="fill:#E6E6E6;" d="M311.791,62.086c0.015,0.056,0.029,0.143,0.029,0.263v230.637 c0,0.869-0.685,2.056-1.438,2.49l-161.855,93.389c-0.108,0.062-0.189,0.092-0.242,0.107c-0.015-0.056-0.029-0.143-0.029-0.263 V158.071c0-0.869,0.685-2.056,1.438-2.49l161.855-93.389C311.657,62.13,311.737,62.1,311.791,62.086 M311.868,60.906 c-0.272,0-0.578,0.089-0.903,0.276L149.11,154.571c-1.116,0.644-2.021,2.212-2.021,3.501v230.638 c0,0.914,0.455,1.443,1.118,1.443c0.272,0,0.578-0.089,0.903-0.276l161.855-93.389c1.116-0.645,2.021-2.212,2.021-3.501V62.348 C312.986,61.434,312.531,60.905,311.868,60.906L311.868,60.906z"/>
				</g>
			</g>
			<g id="XMLID_2861_">
				<g id="XMLID_2922_">
					<polygon id="XMLID_2959_" style="fill:#27DEBF;" points="161.309,163.947 208.709,136.581 208.709,191.313 161.31,218.679 &#9;&#9;&#9;&#9;&#10;&#9;&#9;&#9;&#9;&#9;"/>
				</g>
				<g id="XMLID_2916_">
					<g id="XMLID_2918_">
						<path id="XMLID_2957_" style="fill:#FAFAFA;" d="M201.599,150.264v16.42l-1.485,0.829c0,0,0-2.252,0-5.03 c0-2.778-2.262-3.724-5.053-2.113l-20.104,11.607c-2.791,1.611-5.053,5.169-5.053,7.947v5.03l-1.485,0.886l0-16.42 L201.599,150.264z"/>
					</g>
					<g id="XMLID_2917_">
						<path id="XMLID_2955_" style="fill:#FAFAFA;" d="M192.456,192.112c-2.432,1.404-4.403-0.07-4.403-3.292v-26.337l-6.088,3.314 v26.538c0,3.222-1.971,6.972-4.403,8.376l-4.403,2.542v1.743l23.7-13.683v-1.743 C196.859,189.57,194.888,190.708,192.456,192.112z"/>
					</g>
				</g>
			</g>
			<g id="XMLID_14283_">
				<g id="XMLID_2860_">
					<path id="XMLID_2951_" style="fill:#E0E0E0;" d="M218.189,133.845c0,1.511,1.358,1.953,3.032,0.986l74.514-42.963 c1.674-0.967,3.032-2.976,3.032-4.487c0-1.511-1.357-1.953-3.032-0.986l-74.515,42.963 C219.546,130.325,218.189,132.333,218.189,133.845z"/>
				</g>
				<g id="XMLID_2859_">
					<path id="XMLID_2949_" style="fill:#E0E0E0;" d="M218.189,150.264c0,1.511,1.358,1.953,3.032,0.986l74.514-42.963 c1.674-0.967,3.032-2.976,3.032-4.487c0-1.511-1.357-1.953-3.032-0.986l-74.515,42.963 C219.546,146.744,218.189,148.753,218.189,150.264z"/>
				</g>
				<g id="XMLID_14295_">
					<path id="XMLID_2947_" style="fill:#E0E0E0;" d="M218.189,166.684c0,1.511,1.358,1.953,3.032,0.986l74.514-42.963 c1.674-0.967,3.032-2.976,3.032-4.487c0-1.512-1.357-1.953-3.032-0.986l-74.515,42.964 C219.546,163.164,218.189,165.173,218.189,166.684z"/>
				</g>
				<g id="XMLID_14294_">
					<path id="XMLID_2945_" style="fill:#E0E0E0;" d="M218.189,183.104c0,1.512,1.358,1.953,3.032,0.986l74.514-42.963 c1.674-0.967,3.032-2.976,3.032-4.487c0-1.511-1.357-1.953-3.032-0.986l-74.515,42.963 C219.546,179.583,218.189,181.592,218.189,183.104z"/>
				</g>
			</g>
			<g id="XMLID_14293_">
				<g id="XMLID_2858_">
					<path id="XMLID_2941_" style="fill:#E0E0E0;" d="M161.309,232.368c0,1.511,1.358,1.953,3.032,0.986l131.394-75.807 c1.674-0.967,3.032-2.976,3.032-4.487c0-1.511-1.357-1.953-3.032-0.986L164.341,227.88 C162.667,228.847,161.309,230.856,161.309,232.368z"/>
				</g>
				<g id="XMLID_2857_">
					<path id="XMLID_2939_" style="fill:#E0E0E0;" d="M161.309,248.787c0,1.511,1.358,1.953,3.032,0.986l131.394-75.807 c1.674-0.967,3.032-2.976,3.032-4.487c0-1.511-1.357-1.953-3.032-0.986L164.341,244.3 C162.667,245.267,161.309,247.276,161.309,248.787z"/>
				</g>
				<g id="XMLID_2856_">
					<path id="XMLID_2937_" style="fill:#E0E0E0;" d="M161.309,265.207c0,1.511,1.358,1.953,3.032,0.986l131.394-75.807 c1.674-0.967,3.032-2.976,3.032-4.487c0-1.511-1.357-1.953-3.032-0.986L164.341,260.72 C162.667,261.686,161.309,263.695,161.309,265.207z"/>
				</g>
				<g id="XMLID_2934_">
					<path id="XMLID_2935_" style="fill:#E0E0E0;" d="M161.309,281.623c0,1.511,1.358,1.953,3.032,0.986l131.394-75.807 c1.674-0.967,3.032-2.976,3.032-4.487c0-1.512-1.357-1.953-3.032-0.986l-131.394,75.807 C162.667,278.103,161.309,280.112,161.309,281.623z"/>
				</g>
				<g id="XMLID_2936_">
					<path id="XMLID_2938_" style="fill:#E0E0E0;" d="M161.309,298.04c0,1.511,1.358,1.953,3.032,0.986l131.394-75.807 c1.674-0.967,3.032-2.976,3.032-4.487c0-1.511-1.357-1.953-3.032-0.986l-131.394,75.807 C162.667,294.52,161.309,296.529,161.309,298.04z"/>
				</g>
				<g id="XMLID_2940_">
					<path id="XMLID_2943_" style="fill:#E0E0E0;" d="M161.309,314.457c0,1.512,1.358,1.953,3.032,0.986l131.394-75.807 c1.674-0.967,3.032-2.976,3.032-4.487c0-1.511-1.357-1.953-3.032-0.986L164.341,309.97 C162.667,310.936,161.309,312.945,161.309,314.457z"/>
				</g>
				<g id="XMLID_2944_">
					<path id="XMLID_2946_" style="fill:#E0E0E0;" d="M161.309,330.873c0,1.512,1.358,1.953,3.032,0.986l131.394-75.807 c1.674-0.967,3.032-2.976,3.032-4.487c0-1.512-1.357-1.953-3.032-0.986l-131.394,75.807 C162.667,327.353,161.309,329.362,161.309,330.873z"/>
				</g>
				<g id="XMLID_2948_">
					<path id="XMLID_2950_" style="fill:#E0E0E0;" d="M161.309,347.29c0,1.512,1.358,1.953,3.032,0.986l131.394-75.807 c1.674-0.967,3.032-2.976,3.032-4.487c0-1.511-1.357-1.953-3.032-0.986l-131.394,75.807 C162.667,343.77,161.309,345.779,161.309,347.29z"/>
				</g>
				<g id="XMLID_2952_">
					<path id="XMLID_2953_" style="fill:#E0E0E0;" d="M161.309,363.707c0,1.512,1.358,1.953,3.032,0.986l131.394-75.807 c1.674-0.967,3.032-2.976,3.032-4.487c0-1.511-1.357-1.953-3.032-0.986L164.341,359.22 C162.667,360.186,161.309,362.195,161.309,363.707z"/>
				</g>
			</g>
		</g>
	</g>
	<g id="Padlock_1_" transform="matrix(0.9999999999999999, 0, 0, 0.9999999999999999, 0, 3.552713678800501e-15)">
		<g id="XMLID_2851_">
			<g id="XMLID_2837_">
				<path id="XMLID_2980_" style="fill:#27DEBF;" d="M363.67,245.456c0-9.574,4.797-16.454,4.797-16.454v-9.288 c0-1.204-0.398-2.068-1.046-2.521l0,0l0,0c-0.091-0.064-0.187-0.119-0.288-0.166l-30.181-17.43 c-0.008-0.005-0.016-0.01-0.025-0.014l-0.031-0.018l-0.001,0.003c-0.728-0.396-1.719-0.328-2.814,0.304l-23.751,13.712 c-2.232,1.289-3.826,4.421-3.929,6.996c-0.271,6.803-2.497,19.39-14.504,26.323c-12.09,6.98-14.264-3.221-14.511-9.705 c-0.098-2.576-1.691-3.618-3.923-2.329l-23.751,13.712c-2.232,1.289-4.042,4.424-4.042,7.001v9.288c0,0,4.797,1.342,4.797,10.915 c0,9.574-7.414,26.956-7.414,51.063c0,12.071,3.828,22.156,11.865,26.786l-0.001,0.002l30.191,17.421l0.004-0.004 c8.012,4.713,20.256,3.958,37.127-5.782c33.579-19.387,48.843-53.206,48.843-77.313 C371.085,263.851,363.67,255.03,363.67,245.456z"/>
				<path id="XMLID_2981_" style="fill:#27DEBF;" d="M334.081,199.869l-23.748,13.713c-2.231,1.288-3.828,4.425-3.93,7.001 c-0.252,6.264-2.157,17.447-11.855,24.579l-18.269-10.549l-0.093-0.056c-0.681-0.392-1.624-0.327-2.716,0.308l-23.758,13.713 c-0.327,0.187-0.635,0.411-0.934,0.672c-0.747,0.626-1.41,1.438-1.923,2.343c-0.728,1.27-1.186,2.698-1.186,3.986v9.288 c0.019,0.009,1.316,0.756,1.316,0.756c1.437,1.167,3.482,3.902,3.482,10.156c0,9.578-7.412,26.96-7.412,51.063 c0,12.07,3.827,22.161,11.865,26.792l30.118,17.373c-7.888-4.686-11.641-14.693-11.641-26.652 c0-24.103,7.412-41.485,7.412-51.063c0-9.578-4.798-10.913-4.798-10.913v-9.288c0-1.288,0.448-2.717,1.185-3.986 c0.728-1.27,1.746-2.371,2.857-3.015l23.758-13.713c1.046-0.607,1.951-0.7,2.623-0.355l0.093,0.047 c0.719,0.411,1.148,1.316,1.204,2.632c0.242,6.488,2.418,16.691,14.507,9.709c12.008-6.933,14.235-19.52,14.507-26.321 c0.103-2.576,1.697-5.707,3.929-6.996l23.748-13.713c1.045-0.607,1.998-0.691,2.707-0.355l-30.174-17.429 C336.172,199.169,335.173,199.243,334.081,199.869z"/>
				<path id="XMLID_3010_" style="opacity:0.1;" d="M246.985,265.625l0.019,0.009c0.006,0.005,0.013,0.012,0.019,0.017l28.988,16.73 v-9.288c0-1.288,0.448-2.717,1.185-3.986c0,0,0,0,0.001-0.001l-30.345-17.509c-0.727,1.268-1.183,2.694-1.184,3.98l0,9.291 l0.019,0.009L246.985,265.625z"/>
				<path id="XMLID_2982_" style="opacity:0.4;fill:#FFFFFF;" d="M294.547,245.163l-18.269-10.549l-0.093-0.056 c-0.681-0.392-1.624-0.327-2.716,0.308l-23.758,13.713c-0.327,0.187-0.635,0.411-0.934,0.672 c-0.747,0.626-1.41,1.438-1.923,2.343l30.342,17.513c0.728-1.27,1.746-2.371,2.857-3.015l23.758-13.713 c1.046-0.607,1.951-0.7,2.623-0.355L294.547,245.163z"/>
				<path id="XMLID_3011_" style="opacity:0.4;fill:#FFFFFF;" d="M367.13,217.027l-30.174-17.429 c-0.784-0.429-1.783-0.355-2.875,0.271l-23.748,13.713c-1.115,0.644-2.071,1.749-2.762,3.015l30.344,17.508 c0.69-1.264,1.645-2.367,2.76-3.01l23.748-13.713C365.469,216.775,366.421,216.691,367.13,217.027z"/>
				<path id="XMLID_3018_" style="opacity:0.1;" d="M337.911,234.101c-0.691,1.26-1.111,2.698-1.167,3.986 c-0.271,6.805-2.502,19.389-14.507,26.325c-12.089,6.983-14.264-3.221-14.507-9.709c-0.056-1.316-0.486-2.222-1.204-2.632 l-0.093-0.047l-11.887-6.861c9.699-7.132,11.603-18.315,11.855-24.579c0.047-1.288,0.476-2.716,1.167-3.986L337.911,234.101z"/>
				<path id="XMLID_3019_" style="opacity:0.2;" d="M285.038,371.009l-30.118-17.373c-8.038-4.63-11.865-14.721-11.865-26.792 c0-24.103,7.412-41.485,7.412-51.063c0-6.199-2.007-8.943-3.445-10.129l28.989,16.729c0,0,4.798,1.335,4.798,10.913 c0,9.578-7.412,26.96-7.412,51.063C273.397,356.315,277.15,366.323,285.038,371.009z"/>
			</g>
			<g id="XMLID_255_">
				<path id="XMLID_2850_" style="fill:#455A64;" d="M329.13,329.74l-12.996,7.503l2.014-23.51c-1.555-0.822-2.545-2.844-2.545-5.748 c0-5.177,3.147-11.19,7.03-13.432c3.882-2.241,7.029,0.138,7.029,5.315c0,2.904-0.991,6.07-2.545,8.687L329.13,329.74z"/>
				<polygon id="XMLID_2852_" style="fill:#37474F;" points="329.13,329.74 317.359,322.944 316.134,337.243 &#9;&#9;&#9;"/>
				<path id="XMLID_2855_" style="fill:#37474F;" d="M322.633,294.553c-2.54,1.467-4.759,4.55-5.995,7.955l10.479,6.05l0-0.003 c1.555-2.617,2.545-5.783,2.545-8.687C329.662,294.692,326.515,292.312,322.633,294.553z"/>
			</g>
			<g id="XMLID_1995_">
				<path id="XMLID_1997_" style="fill: rgb(134, 175, 195);" d="M337.317,157.872c-6.422-3.707-14.502-3.293-22.168,1.133l-28.332,16.358 c-12.278,7.089-21.537,23.125-21.537,37.303v38.246l0,0c0,1.584,1.057,3.169,3.151,4.378c4.188,2.418,10.98,2.418,15.168,0 c2.094-1.209,3.151-2.794,3.152-4.378l0,0v-38.246c0-6.528,5.149-15.445,10.802-18.708l28.332-16.358 c0.022-0.012,0.044-0.025,0.066-0.037c0,0.025,0,0.05,0,0.075v38.246l0,0c0,1.585,1.057,3.169,3.151,4.378 c4.189,2.418,10.979,2.418,15.168,0c2.094-1.209,3.151-2.794,3.151-4.379l0,0v-38.246 C347.421,168.782,343.738,161.579,337.317,157.872z"/>
				<path id="XMLID_2853_" style="fill: rgb(112, 141, 156);" d="M325.95,177.636v38.246c0,1.585,1.057,3.169,3.151,4.378 c0.94,0.542,2.014,0.956,3.157,1.256v-47.597l-6.309,3.642C325.95,177.586,325.95,177.611,325.95,177.636z"/>
			</g>
		</g>
	</g>
	<g id="Character" transform="matrix(0.9999999999999999, 0, 0, 0.9999999999999999, 0, 3.552713678800501e-15)">
		<g id="XMLID_228_">
			<g id="XMLID_1998_">
				<g id="XMLID_3208_">
					<path id="XMLID_3209_" style="fill:#9A4A4D;" d="M454.218,217.73c-1.663-0.479-2.988-1.417-5.383-1.904 c-2.109-0.429-2.971-0.643-4.633-1.764c-1.802-1.215-5.329-6.411-8.121-11.595c-3.294-6.116-5.274-14.885-5.596-18.761 c-0.655-7.868-2.472-18.395-2.946-22.945c-0.755-7.264-2.917-10.997-11.312-10.489c0,0,2.253,2.556,1.6,9.119 c-0.653,6.563,1.243,17.998,2.667,26.877c0.69,4.303,2.939,10.207,7.142,18.083c2.936,5.502,5.592,10.135,9.684,14.841 c1.115,1.283,1.625,2.51,3.464,5.206c0.741,1.087,1.521,2.303,2.552,3.117c1.31,1.035,2.743,1.926,4.296,2.547 c1.956,0.782,4.112,1.125,6.192,0.793c1.144-0.183,2.27-0.575,3.207-1.256c0.937-0.681,1.676-1.667,1.943-2.795 c0.054-0.229,0.089-0.471,0.022-0.697c-0.12-0.407-0.525-0.65-0.898-0.852c-2.084-1.132-4.5-2.041-6.444-3.38 c-1.643-1.132-2.647-2.158-2.26-2.256c0.388-0.098,1.307,0.634,3.033,0.853c1.649,0.208,3.392-0.569,3.436-1.504 C455.906,218.033,455.88,218.209,454.218,217.73z"/>
				</g>
				<path id="XMLID_3206_" style="fill:#27DEBF;" d="M415.663,149.774c3.031-0.199,9.459-1.008,11.401,5.087 c1.943,6.095,4.171,28.848,4.773,31.738c0.602,2.889,2.188,8.528,3.95,12.846c1.762,4.317,6.871,13.129,6.871,13.129 l-6.319,5.458c0,0-8.923-10.35-13.504-21.341c-4.582-10.991-6.014-25.177-6.223-33.635 C416.403,154.597,415.663,149.774,415.663,149.774z"/>
				<path id="XMLID_3207_" style="opacity:0.1;" d="M415.663,149.774c3.031-0.199,9.459-1.008,11.401,5.087 c1.943,6.095,4.171,28.848,4.773,31.738c0.602,2.889,2.188,8.528,3.95,12.846c1.762,4.317,6.871,13.129,6.871,13.129 l-6.319,5.458c0,0-8.923-10.35-13.504-21.341c-4.582-10.991-6.014-25.177-6.223-33.635 C416.403,154.597,415.663,149.774,415.663,149.774z"/>
			</g>
			<polygon id="XMLID_3190_" style="fill:#9A4A4D;" points="421.345,335.15 430.253,335.457 430.699,319.309 421.791,319.003 &#9;&#9;"/>
			<g id="XMLID_3187_">
				<rect id="XMLID_3204_" x="388.013" y="330.977" transform="matrix(-1 -1.224647e-16 1.224647e-16 -1 784.9404 677.2125)" style="fill:#9A4A4D;" width="8.913" height="15.259"/>
				<path id="XMLID_3189_" style="fill: rgb(16, 75, 103);" d="M396.927,341.836v-1.275c0.853,0.371,2.834,7.932,6.371,11.158 c2.812,2.564,6.647,5.526,7.622,8.385c1.015,2.973-5.341,4.615-7.968,4.15c-3.052-0.54-8.342-2.69-9.67-4.682 c-1.328-1.992-1.949-4.931-3.029-6.391c-1.079-1.46-3.566-3.09-4.15-4.78c-0.321-0.928,0.06-2.961,0.51-4.679 c0.413-1.576,0.861-3.309,1.399-3.161c0.002,0.192,0,0.972,0,0.972c0.647,0.717,2.437,1.429,4.456,1.506 C393.774,343.089,396.938,342.83,396.927,341.836z"/>
			</g>
			<path id="XMLID_3188_" style="fill: rgb(16, 75, 103);" d="M430.348,332.708c0.463,0.016,0.84,0.669,1.86,1.774 c1.234,1.335,3.252,2.776,5.243,3.773c3.338,1.671,9.826,4.241,12.763,5.564c1.835,0.826,1.749,3.043-0.148,4.304 c-1.897,1.261-6.475,2.17-11.973,0.94c-2.995-0.67-6.894-3.436-9.361-3.287c-2.468,0.149-7.085,0.114-8.907-1.142 c-1.822-1.255-1.093-3.937-0.578-6.241c0.562-2.515,1.366-6.362,2.198-6.191l-0.027,0.791c1.072,1.623,6.527,2.285,8.881,1.091 L430.348,332.708z"/>
			<path id="XMLID_3161_" style="fill: rgb(92, 131, 151);" d="M391.823,204.57c-6.969,14.337-0.092,68.417-0.092,68.417 c-0.254,2.347-3.049,6.912-4.29,17.238c-1.466,12.201-0.198,43.561-0.198,43.561s5.818,2.585,10.556,0.446 c0,0,8.372-46.543,10.186-58.666c1.583-10.58,4.691-33.852,4.691-33.852l6.519,34.053c0,0-2.011,5.901-2.555,10.419 c-0.858,7.136,4.259,40.416,4.259,40.416s4.363,2.159,10.03,0.667c0,0,3.036-44.165,3.881-52.766 c1.419-14.443-2.772-59.618-4.249-69.069L391.823,204.57z"/>
			<g id="XMLID_3096_">
				<path id="XMLID_3116_" style="fill:#27DEBF;" d="M401.135,150.089L401.135,150.089c-2.243,0.264-7.448,1.169-7.448,1.169 c-3.446,1.266-3.074,3.387-4.022,6.696c-1.174,4.097-0.406,11.416,0.986,15.444l6.674,19.309 c-2.493,6.027-4.896,7.788-6.094,12.376c10.91,8.084,34.361,7.607,39.397,0.785c0.213-1.447-1.71-18.063-2.507-25.452 c3.403-6.162,4.698-10.589,2.918-15.312c-3.05-8.09-11.407-15.652-15.376-15.33L401.135,150.089z"/>
			</g>
			<g id="XMLID_3097_">
				<g id="XMLID_3114_">
					<path id="XMLID_3115_" style="fill: rgb(82, 44, 23);" d="M407.922,143.14h-3.294c-9.581,0-17.349-7.767-17.349-17.349v0 c0-9.633,7.809-17.442,17.442-17.442h3.106c9.633,0,17.442,7.809,17.442,17.442l0,0 C425.27,135.373,417.503,143.14,407.922,143.14z"/>
				</g>
				<path id="XMLID_3113_" style="fill: rgb(82, 44, 23);" d="M378.393,151.124L378.393,151.124c5.907,0,10.696-4.789,10.696-10.696v-22.904 l0,0c-5.907,0-10.696,4.789-10.696,10.696V151.124z"/>
				<g id="XMLID_3110_">
					<path id="XMLID_3111_" style="fill:#B16668;" d="M419.586,114.683c2.094,1.237,4.682,6.504,4.426,17.543 c-0.216,9.357-3.249,11.668-4.772,12.334c-1.523,0.666-4.46,0.261-7.315-0.215v5.615l-0.574,6.592l-11.179-5.11v-13.574 c0,0-1.928,2.574-5.08,0.48c-3.153-2.094-3.273-7.276-1.44-9.137c1.833-1.861,5.784-1.271,6.52,1.299c0,0,1.275-2.69,7.82-4.931 C414.879,123.222,417.174,119.079,419.586,114.683z"/>
				</g>
				<g id="XMLID_3108_">
					<path id="XMLID_3109_" style="fill:#263238;" d="M412.518,129.875c0.034,0.674-0.465,1.246-1.114,1.277 c-0.649,0.031-1.203-0.491-1.237-1.165c-0.034-0.674,0.465-1.246,1.114-1.277C411.93,128.68,412.484,129.201,412.518,129.875z"/>
				</g>
				<g id="XMLID_3106_">
					<path id="XMLID_3107_" style="fill:#9A4A4D;" d="M413.879,137.807l2.733,0.872c-0.227,0.782-1.022,1.221-1.777,0.98 C414.08,139.418,413.653,138.589,413.879,137.807z"/>
				</g>
				<g id="XMLID_3104_">
					<path id="XMLID_3105_" style="fill:#263238;" d="M422.165,126.262l-2.381-1.65c0.434-0.68,1.32-0.862,1.977-0.406 C422.419,124.662,422.599,125.583,422.165,126.262z"/>
				</g>
				<g id="XMLID_3102_">
					<path id="XMLID_3103_" style="fill:#263238;" d="M421.616,129.025c0.034,0.674-0.465,1.246-1.114,1.276 c-0.649,0.031-1.203-0.491-1.237-1.165c-0.034-0.674,0.465-1.246,1.114-1.277C421.028,127.829,421.582,128.35,421.616,129.025z"/>
				</g>
				<g id="XMLID_3100_">
					<polygon id="XMLID_3101_" style="fill:#9A4A4D;" points="415.869,128.351 416.056,135.434 419.784,134.279 &#9;&#9;&#9;&#9;"/>
				</g>
				<g id="XMLID_3098_">
					<path id="XMLID_3099_" style="fill:#9A4A4D;" d="M411.925,144.345c-3.009-0.395-9.2-2.173-10.164-4.62 c0,0,0.322,1.538,2.171,3.123c1.849,1.585,7.994,3.37,7.994,3.37V144.345z"/>
				</g>
			</g>
			<path id="XMLID_3186_" d="M412.677,241.714l3.398-16.51c0,0,7.104-1.198,10.873-3.884c0,0-2.954,3.908-8.053,5.807l-3.898,15.578 l0.972,16.207L412.677,241.714z"/>
			<g id="XMLID_3205_">
				<path id="XMLID_3362_" style="fill: rgb(105, 133, 147);" d="M399.944,119.722c0,0,13.431,9.15,22.776,4.579 c9.345-4.572-2.762-10.954-2.762-10.954L399.944,119.722z"/>
				<g id="XMLID_3340_">
					<g id="XMLID_3335_">
						<path id="XMLID_3331_" style="fill:#27DEBF;" d="M419.861,100.535c-8.001-2.23-16.672-3.672-26.752-0.015 c-10.08,3.656-12.275,9.905-12.275,9.905s10.252,4.053,18.603,2.682C407.788,111.735,419.861,100.535,419.861,100.535z"/>
						<path id="XMLID_3334_" style="opacity:0.4;fill:#FFFFFF;" d="M419.861,100.535c-8.001-2.23-16.672-3.672-26.752-0.015 c-10.08,3.656-12.275,9.905-12.275,9.905s10.252,4.053,18.603,2.682C407.788,111.735,419.861,100.535,419.861,100.535z"/>
					</g>
					<path id="XMLID_3333_" style="fill:#27DEBF;" d="M386.443,114.21c0,0-5.138-2.439-5.609-3.785c0,0,5.26,0.83,11.93-0.776 s13.607-8.085,21.12-9.226c7.513-1.141,10.71,2.683,10.71,2.683s-1.666,5.349-4.262,8.587c0,0-2.323,5.066-11.166,6.237 C400.323,119.101,386.443,114.21,386.443,114.21z"/>
					<path id="XMLID_3282_" style="fill: rgb(119, 167, 190);" d="M386.443,114.21l0.42,1.457c0.259,0.899,1.093,1.92,1.966,2.267 c3.018,1.199,10.646,3.846,20.552,2.014c6.208-1.148,9.009-2.742,10.127-3.943c1.096-1.178,1.171-2.005,1.037-2.897 l-0.212-1.416c0,0-1.92,2.675-12.073,4.663C398.105,118.343,386.443,114.21,386.443,114.21z"/>
					<path id="XMLID_3336_" style="fill:#FAFAFA;" d="M414.662,103.412c-0.079,1.57-1.736,4.446-3.927,3.091c0,0,0,2.333,0.003,3.946 c0.004,2.456,1.446,3.296,3.777,2.809c2.514-0.526,3.984-2.552,4.063-4.997c0.024-0.747,0.001-3.398,0.001-3.398 C416.856,107.234,414.627,104.015,414.662,103.412z"/>
				</g>
			</g>
			<path id="XMLID_3112_" style="fill: rgb(82, 44, 23);" d="M400.172,132.927L400.172,132.927v-5.312h2.064v3.247 C402.236,132.003,401.312,132.927,400.172,132.927z"/>
			<g id="XMLID_3013_">
				<path id="XMLID_18521_" style="fill:#27DEBF;" d="M411.351,156.552l-11.178-8.148l-0.003-2.032c0,0-2.348,0.394-2.922,4.881 c1.565,3.62,4.339,6.656,8.506,9.02l2.307-4.095L411.351,156.552z"/>
				<path id="XMLID_3014_" style="opacity:0.1;" d="M411.351,156.552l-11.178-8.148l-0.003-2.032c0,0-2.348,0.394-2.922,4.881 c1.565,3.62,4.339,6.656,8.506,9.02l2.307-4.095L411.351,156.552z"/>
			</g>
			<g id="XMLID_3009_">
				<path id="XMLID_18520_" style="fill:#27DEBF;" d="M411.925,146.863c0,0,2.546,0.382,3.648,2.19 c1.099,1.805,0.848,8.706,0.848,8.706l-2.926-3.335l-2.143,2.128c0.234-2.3,0.567-6.59,0.567-6.59L411.925,146.863z"/>
				<path id="XMLID_3012_" style="opacity:0.1;" d="M411.925,146.863c0,0,2.546,0.382,3.648,2.19 c1.099,1.805,0.848,8.706,0.848,8.706l-2.926-3.335l-2.143,2.128c0.234-2.3,0.567-6.59,0.567-6.59L411.925,146.863z"/>
			</g>
			<g id="XMLID_1999_">
				<g id="XMLID_2165_">
					<path id="XMLID_2166_" style="fill:#9A4A4D;" d="M402.719,228.795c-1.39-1.03-2.304-2.373-4.376-3.668 c-1.825-1.14-2.559-1.642-3.723-3.274c-1.263-1.769-2.748-7.871-3.55-13.704c-0.946-6.882,0.105-16.217,0.586-20.076 c0.987-7.915,3.386-17.526,4.5-21.963c0.084-0.335-1.713-10.396-3.7-11.982c0,0-2.268-0.314-5.176,5.606 c-2.908,5.919-4.337,18.991-5.143,27.787c-0.398,4.34-0.818,10.59,0.363,19.438c0.825,6.181,1.692,11.451,3.878,17.291 c0.596,1.592,0.644,2.92,1.423,6.089c0.314,1.278,0.619,2.689,1.3,3.813c0.865,1.427,1.896,2.763,3.133,3.889 c1.558,1.417,3.458,2.493,5.523,2.91c1.136,0.229,2.327,0.255,3.444-0.055c1.117-0.31,2.153-0.975,2.798-1.938 c0.131-0.195,0.248-0.41,0.264-0.645c0.03-0.423-0.264-0.793-0.543-1.113c-1.556-1.789-3.501-3.486-4.854-5.422 c-1.143-1.635-1.725-2.948-1.328-2.905c0.397,0.044,1.002,1.052,2.543,1.86c1.472,0.772,3.376,0.653,3.745-0.206 C404.195,229.669,404.109,229.825,402.719,228.795z"/>
				</g>
				<path id="XMLID_2030_" style="fill:#27DEBF;" d="M393.534,151.278c0,0,5.016,10.092,2.763,19.046 c-2.048,8.138-3.201,18.559-3.648,21.476c-0.447,2.917-0.935,8.755-0.795,13.416c0.14,4.661,1.843,14.704,1.843,14.704 l-7.83,2.902c0,0-4.737-12.818-5.183-24.718c-0.446-11.899,0.699-26.024,2.631-34.262 C384.159,160.245,385.16,152.707,393.534,151.278z"/>
				<path id="XMLID_2032_" style="opacity:0.1;" d="M393.534,151.278c0,0,5.016,10.092,2.763,19.046 c-2.048,8.138-3.201,18.559-3.648,21.476c-0.447,2.917-0.935,8.755-0.795,13.416c0.14,4.661,1.843,14.704,1.843,14.704 l-7.83,2.902c0,0-4.737-12.818-5.183-24.718c-0.446-11.899,0.699-26.024,2.631-34.262 C384.159,160.245,385.16,152.707,393.534,151.278z"/>
			</g>
			<path id="XMLID_2169_" style="fill:#37474F;" d="M401.575,168.447c0,0,7.464-0.302,10.535-1.496v-1.496 c-3.071,1.193-10.535,1.496-10.535,1.496V168.447z"/>
			<path id="XMLID_2168_" style="fill:#37474F;" d="M385.279,162.952c0,0,2.349-0.818,5.593,1.006l0.077-0.331 c0.081-0.35-0.097-0.707-0.421-0.864c-2.094-1.022-3.752-0.954-4.54-0.828c-0.301,0.048-0.539,0.281-0.608,0.577L385.279,162.952z "/>
			<path id="XMLID_2167_" style="fill:#37474F;" d="M389.448,167.574c-0.389,1.744-1.767,2.922-3.077,2.63 c-1.311-0.292-2.058-1.943-1.669-3.688c0.389-1.745,1.767-2.922,3.077-2.63C389.089,164.178,389.836,165.829,389.448,167.574z"/>
		</g>
	</g>
</svg>