<?xml version="1.0" encoding="utf-8"?>
<svg viewBox="0 0 140 140" style="enable-background:new 0 0 500 500;"
	xmlns="http://www.w3.org/2000/svg">
	<g id="OBJECTS" transform="matrix(1, 0, 0, 1, -3, -1)">
		<circle style="stroke: #6d94a8; fill: #6d94a8; paint-order: stroke;" transform="matrix(0.627353, 0, 0, 0.60908, -70.013802, -174.984726)" cx="228" cy="403" r="103"/>
		<g transform="matrix(1, 0, 0, 1, -36, -182)">
			<rect x="71.862" y="215.837" style="fill:#16D8D8;" width="73.208" height="73.207"/>
			<path style="fill:#3A4D57;" d="M135.308,284.164H81.623c-2.695,0-4.881-2.185-4.881-4.881v-53.685 c0-2.696,2.185-4.881,4.881-4.881h53.686c2.695,0,4.88,2.185,4.88,4.881v53.685C140.189,281.978,138.004,284.164,135.308,284.164z "/>
			<g>
				<path style="fill:#3A4D57;" d="M79.182,203.635L79.182,203.635c-1.348,0-2.44,1.093-2.44,2.44v9.761h4.881v-9.761 C81.623,204.728,80.53,203.635,79.182,203.635z"/>
				<path style="fill:#3A4D57;" d="M88.943,203.635L88.943,203.635c-1.348,0-2.44,1.093-2.44,2.44v9.761h4.881v-9.761 C91.384,204.728,90.291,203.635,88.943,203.635z"/>
				<path style="fill:#3A4D57;" d="M98.704,203.635L98.704,203.635c-1.348,0-2.44,1.093-2.44,2.44v9.761h4.88v-9.761 C101.145,204.728,100.052,203.635,98.704,203.635z"/>
				<path style="fill:#3A4D57;" d="M108.465,203.635L108.465,203.635c-1.348,0-2.44,1.093-2.44,2.44v9.761h4.881v-9.761 C110.906,204.728,109.813,203.635,108.465,203.635z"/>
				<path style="fill:#3A4D57;" d="M118.226,203.635L118.226,203.635c-1.348,0-2.44,1.093-2.44,2.44v9.761h4.881v-9.761 C120.667,204.728,119.574,203.635,118.226,203.635z"/>
				<path style="fill:#3A4D57;" d="M127.987,203.635L127.987,203.635c-1.348,0-2.44,1.093-2.44,2.44v9.761h4.88v-9.761 C130.428,204.728,129.335,203.635,127.987,203.635z"/>
				<path style="fill:#3A4D57;" d="M137.748,203.635L137.748,203.635c-1.348,0-2.44,1.093-2.44,2.44v9.761h4.88v-9.761 C140.189,204.728,139.096,203.635,137.748,203.635z"/>
			</g>
			<g>
				<path style="fill:#3A4D57;" d="M79.182,301.245L79.182,301.245c-1.348,0-2.44-1.093-2.44-2.44v-9.761h4.881v9.761 C81.623,300.153,80.53,301.245,79.182,301.245z"/>
				<path style="fill:#3A4D57;" d="M88.943,301.245L88.943,301.245c-1.348,0-2.44-1.093-2.44-2.44v-9.761h4.881v9.761 C91.384,300.153,90.291,301.245,88.943,301.245z"/>
				<path style="fill:#3A4D57;" d="M98.704,301.245L98.704,301.245c-1.348,0-2.44-1.093-2.44-2.44v-9.761h4.88v9.761 C101.145,300.153,100.052,301.245,98.704,301.245z"/>
				<path style="fill:#3A4D57;" d="M108.465,301.245L108.465,301.245c-1.348,0-2.44-1.093-2.44-2.44v-9.761h4.881v9.761 C110.906,300.153,109.813,301.245,108.465,301.245z"/>
				<path style="fill:#3A4D57;" d="M118.226,301.245L118.226,301.245c-1.348,0-2.44-1.093-2.44-2.44v-9.761h4.881v9.761 C120.667,300.153,119.574,301.245,118.226,301.245z"/>
				<path style="fill:#3A4D57;" d="M127.987,301.245L127.987,301.245c-1.348,0-2.44-1.093-2.44-2.44v-9.761h4.88v9.761 C130.428,300.153,129.335,301.245,127.987,301.245z"/>
				<path style="fill:#3A4D57;" d="M137.748,301.245L137.748,301.245c-1.348,0-2.44-1.093-2.44-2.44v-9.761h4.88v9.761 C140.189,300.153,139.096,301.245,137.748,301.245z"/>
			</g>
			<g>
				<path style="fill:#3A4D57;" d="M154.83,225.598h-9.761v-4.881h9.761c1.348,0,2.44,1.092,2.44,2.44l0,0 C157.27,224.505,156.178,225.598,154.83,225.598z"/>
				<path style="fill:#3A4D57;" d="M154.83,235.359h-9.761v-4.881h9.761c1.348,0,2.44,1.092,2.44,2.44l0,0 C157.27,234.266,156.178,235.359,154.83,235.359z"/>
				<path style="fill:#3A4D57;" d="M154.83,245.12h-9.761v-4.881h9.761c1.348,0,2.44,1.092,2.44,2.44l0,0 C157.27,244.027,156.178,245.12,154.83,245.12z"/>
				<path style="fill:#3A4D57;" d="M154.83,254.88h-9.761V250h9.761c1.348,0,2.44,1.092,2.44,2.44l0,0 C157.27,253.788,156.178,254.88,154.83,254.88z"/>
				<path style="fill:#3A4D57;" d="M154.83,264.642h-9.761v-4.881h9.761c1.348,0,2.44,1.092,2.44,2.44v0 C157.27,263.549,156.178,264.642,154.83,264.642z"/>
				<path style="fill:#3A4D57;" d="M154.83,274.402h-9.761v-4.88h9.761c1.348,0,2.44,1.092,2.44,2.44l0,0 C157.27,273.31,156.178,274.402,154.83,274.402z"/>
				<path style="fill:#3A4D57;" d="M154.83,284.164h-9.761v-4.881h9.761c1.348,0,2.44,1.092,2.44,2.44l0,0 C157.27,283.071,156.178,284.164,154.83,284.164z"/>
			</g>
			<g>
				<path style="fill:#3A4D57;" d="M62.101,225.598h9.761v-4.881h-9.761c-1.348,0-2.44,1.092-2.44,2.44l0,0 C59.66,224.505,60.753,225.598,62.101,225.598z"/>
				<path style="fill:#3A4D57;" d="M62.101,235.359h9.761v-4.881h-9.761c-1.348,0-2.44,1.092-2.44,2.44l0,0 C59.66,234.266,60.753,235.359,62.101,235.359z"/>
				<path style="fill:#3A4D57;" d="M62.101,245.12h9.761v-4.881h-9.761c-1.348,0-2.44,1.092-2.44,2.44l0,0 C59.66,244.027,60.753,245.12,62.101,245.12z"/>
				<path style="fill:#3A4D57;" d="M62.101,254.88h9.761V250h-9.761c-1.348,0-2.44,1.092-2.44,2.44l0,0 C59.66,253.788,60.753,254.88,62.101,254.88z"/>
				<path style="fill:#3A4D57;" d="M62.101,264.642h9.761v-4.881h-9.761c-1.348,0-2.44,1.092-2.44,2.44v0 C59.66,263.549,60.753,264.642,62.101,264.642z"/>
				<path style="fill:#3A4D57;" d="M62.101,274.402h9.761v-4.88h-9.761c-1.348,0-2.44,1.092-2.44,2.44l0,0 C59.66,273.31,60.753,274.402,62.101,274.402z"/>
				<path style="fill:#3A4D57;" d="M62.101,284.164h9.761v-4.881h-9.761c-1.348,0-2.44,1.092-2.44,2.44l0,0 C59.66,283.071,60.753,284.164,62.101,284.164z"/>
			</g>
			<g>
				<rect x="107.245" y="237.799" style="fill:#FFFFFF;" width="2.44" height="29.283"/>
			</g>
			<g>
				<rect x="126.767" y="237.799" style="fill:#FFFFFF;" width="2.44" height="29.283"/>
			</g>
			<g>
				<g>
					<path style="fill:#FFFFFF;" d="M108.465,239.019c-3.364,0-6.101-2.737-6.101-6.101c0-3.364,2.737-6.101,6.101-6.101 s6.101,2.737,6.101,6.101C114.566,236.282,111.829,239.019,108.465,239.019z M108.465,229.258c-2.018,0-3.66,1.642-3.66,3.66 c0,2.019,1.642,3.66,3.66,3.66c2.019,0,3.66-1.642,3.66-3.66C112.126,230.9,110.484,229.258,108.465,229.258z"/>
				</g>
				<g>
					<path style="fill:#FFFFFF;" d="M108.465,278.063c-3.364,0-6.101-2.737-6.101-6.101c0-3.364,2.737-6.101,6.101-6.101 s6.101,2.737,6.101,6.101C114.566,275.326,111.829,278.063,108.465,278.063z M108.465,268.302c-2.018,0-3.66,1.642-3.66,3.66 c0,2.018,1.642,3.66,3.66,3.66c2.019,0,3.66-1.642,3.66-3.66C112.126,269.944,110.484,268.302,108.465,268.302z"/>
				</g>
			</g>
			<g>
				<g>
					<path style="fill:#FFFFFF;" d="M127.987,239.019c-3.364,0-6.101-2.737-6.101-6.101c0-3.364,2.737-6.101,6.101-6.101 c3.364,0,6.101,2.737,6.101,6.101C134.088,236.282,131.351,239.019,127.987,239.019z M127.987,229.258 c-2.018,0-3.66,1.642-3.66,3.66c0,2.019,1.642,3.66,3.66,3.66c2.018,0,3.66-1.642,3.66-3.66 C131.648,230.9,130.006,229.258,127.987,229.258z"/>
				</g>
				<g>
					<path style="fill:#FFFFFF;" d="M127.987,278.063c-3.364,0-6.101-2.737-6.101-6.101c0-3.364,2.737-6.101,6.101-6.101 c3.364,0,6.101,2.737,6.101,6.101C134.088,275.326,131.351,278.063,127.987,278.063z M127.987,268.302 c-2.018,0-3.66,1.642-3.66,3.66c0,2.018,1.642,3.66,3.66,3.66c2.018,0,3.66-1.642,3.66-3.66 C131.648,269.944,130.006,268.302,127.987,268.302z"/>
				</g>
			</g>
			<g>
				<rect x="87.723" y="237.799" style="fill:#FFFFFF;" width="2.44" height="29.283"/>
			</g>
			<g>
				<g>
					<path style="fill:#FFFFFF;" d="M88.943,239.019c-3.364,0-6.101-2.737-6.101-6.101c0-3.364,2.737-6.101,6.101-6.101 s6.101,2.737,6.101,6.101C95.044,236.282,92.307,239.019,88.943,239.019z M88.943,229.258c-2.019,0-3.66,1.642-3.66,3.66 c0,2.019,1.642,3.66,3.66,3.66c2.018,0,3.66-1.642,3.66-3.66C92.604,230.9,90.962,229.258,88.943,229.258z"/>
				</g>
				<g>
					<path style="fill:#FFFFFF;" d="M88.943,278.063c-3.364,0-6.101-2.737-6.101-6.101c0-3.364,2.737-6.101,6.101-6.101 s6.101,2.737,6.101,6.101C95.044,275.326,92.307,278.063,88.943,278.063z M88.943,268.302c-2.019,0-3.66,1.642-3.66,3.66 c0,2.018,1.642,3.66,3.66,3.66c2.018,0,3.66-1.642,3.66-3.66C92.604,269.944,90.962,268.302,88.943,268.302z"/>
				</g>
			</g>
		</g>
	</g>
</svg>