<?xml version="1.0" encoding="utf-8"?>
<svg viewBox="0 0 500 500"
    xmlns="http://www.w3.org/2000/svg">
    <rect x="160" y="30" width="200" height="50" style="fill: rgb(241, 245, 174); stroke: rgb(0, 0, 0);"/>
    <rect x="160" y="80" width="200" height="63.636" style="fill: rgb(245, 201, 174); stroke: rgb(0, 0, 0);"/>
    <rect x="160" y="150" width="200" height="50" style="fill: rgb(241, 245, 174); stroke: rgb(0, 0, 0);"/>
    <rect x="160" y="200" width="200" height="50" style="fill: rgb(241, 245, 174); stroke: rgb(0, 0, 0);"/>
    <rect x="160" y="250" width="200" height="50" style="fill: rgb(241, 245, 174); stroke: rgb(0, 0, 0);"/>
    <rect x="160" y="300" width="200" height="63.636" style="fill: rgb(245, 201, 174); stroke: rgb(0, 0, 0);"/>
    <rect x="30" y="50" width="20" height="15" style="stroke: rgb(0, 0, 0); fill: rgb(207, 179, 0);"/>
    <rect x="50" y="50" width="60" height="15" style="stroke: rgb(0, 0, 0); fill: rgb(235, 52, 83);"/>
    <rect x="110" y="50" width="30" height="15" style="stroke: rgb(0, 0, 0); fill: rgb(207, 179, 0);"/>
    <rect x="30" y="70" width="20" height="15" style="stroke: rgb(0, 0, 0); fill: rgb(207, 179, 0);"/>
    <rect x="50" y="70" width="60" height="15" style="stroke: rgb(0, 0, 0); fill: rgb(4, 42, 181);"/>
    <rect x="110" y="70" width="30" height="15" style="stroke: rgb(0, 0, 0); fill: rgb(207, 179, 0);"/>
    <rect x="30" y="90" width="20" height="15" style="stroke: rgb(0, 0, 0); fill: rgb(207, 179, 0);"/>
    <rect x="50" y="90" width="60" height="15" style="stroke: rgb(0, 0, 0); fill: rgb(4, 181, 19);"/>
    <rect x="110" y="90" width="30" height="15" style="stroke: rgb(0, 0, 0); fill: rgb(207, 179, 0);"/>
    <rect x="170" y="50" width="20" height="15" style="stroke: rgb(0, 0, 0); fill: rgb(207, 179, 0);"/>
    <rect x="190" y="90" width="60" height="15" style="stroke: rgb(0, 0, 0); fill: rgb(235, 52, 83);"/>
    <rect x="250" y="50" width="30" height="15" style="stroke: rgb(0, 0, 0); fill: rgb(207, 179, 0);"/>
    <rect x="190" y="50" width="20" height="15" style="stroke: rgb(0, 0, 0); fill: rgb(207, 179, 0);"/>
    <rect x="210" y="105" width="60" height="15" style="stroke: rgb(0, 0, 0); fill: rgb(4, 42, 181);"/>
    <rect x="280" y="50" width="30" height="15" style="stroke: rgb(0, 0, 0); fill: rgb(207, 179, 0);"/>
    <rect x="210" y="50" width="20" height="15" style="stroke: rgb(0, 0, 0); fill: rgb(207, 179, 0);"/>
    <rect x="235" y="120" width="60" height="15" style="stroke: rgb(0, 0, 0); fill: rgb(4, 181, 19);"/>
    <rect x="310" y="50" width="30" height="15" style="stroke: rgb(0, 0, 0); fill: rgb(207, 179, 0);"/>
    <rect x="48.897" y="470.191" width="20" height="15" style="stroke: rgb(0, 0, 0); fill: rgb(207, 179, 0);"/>
    <rect x="68.897" y="470.191" width="60" height="15" style="stroke: rgb(0, 0, 0); fill: rgb(235, 52, 83);"/>
    <rect x="128.897" y="470.191" width="30" height="15" style="stroke: rgb(0, 0, 0); fill: rgb(207, 179, 0);"/>
    <rect x="159.936" y="470.061" width="20" height="15" style="stroke: rgb(0, 0, 0); fill: rgb(207, 179, 0);"/>
    <rect x="179.936" y="470.061" width="60" height="15" style="stroke: rgb(0, 0, 0); fill: rgb(4, 42, 181);"/>
    <rect x="239.936" y="470.061" width="30" height="15" style="stroke: rgb(0, 0, 0); fill: rgb(207, 179, 0);"/>
    <rect x="272.274" y="469.931" width="20" height="15" style="stroke: rgb(0, 0, 0); fill: rgb(207, 179, 0);"/>
    <rect x="292.274" y="469.931" width="60" height="15" style="stroke: rgb(0, 0, 0); fill: rgb(4, 181, 19);"/>
    <rect x="352.274" y="469.931" width="30" height="15" style="stroke: rgb(0, 0, 0); fill: rgb(207, 179, 0);"/>
    <rect x="194.454" y="384.524" width="20" height="15" style="stroke: rgb(0, 0, 0); fill: rgb(207, 179, 0);"/>
    <rect x="214.454" y="384.524" width="60" height="15" style="stroke: rgb(0, 0, 0); fill: rgb(235, 52, 83);"/>
    <rect x="274.454" y="384.524" width="30" height="15" style="stroke: rgb(0, 0, 0); fill: rgb(207, 179, 0);"/>
    <rect x="194.454" y="404.524" width="20" height="15" style="stroke: rgb(0, 0, 0); fill: rgb(207, 179, 0);"/>
    <rect x="214.454" y="404.524" width="60" height="15" style="stroke: rgb(0, 0, 0); fill: rgb(4, 42, 181);"/>
    <rect x="274.454" y="404.524" width="30" height="15" style="stroke: rgb(0, 0, 0); fill: rgb(207, 179, 0);"/>
    <rect x="194.454" y="424.524" width="20" height="15" style="stroke: rgb(0, 0, 0); fill: rgb(207, 179, 0);"/>
    <rect x="214.454" y="424.524" width="60" height="15" style="stroke: rgb(0, 0, 0); fill: rgb(4, 181, 19);"/>
    <rect x="274.454" y="424.524" width="30" height="15" style="stroke: rgb(0, 0, 0); fill: rgb(207, 179, 0);"/>
    <rect x="170" y="175" width="5" height="15" style="stroke: rgb(0, 0, 0); fill: rgb(207, 179, 0);"/>
    <rect x="195" y="310" width="60" height="15" style="stroke: rgb(0, 0, 0); fill: rgb(235, 52, 83);"/>
    <rect x="215" y="325" width="60" height="15" style="stroke: rgb(0, 0, 0); fill: rgb(4, 42, 181);"/>
    <rect x="230" y="340" width="60" height="15" style="stroke: rgb(0, 0, 0); fill: rgb(4, 181, 19);"/>
    <rect x="190" y="175" width="10" height="15" style="stroke: rgb(0, 0, 0); fill: rgb(207, 179, 0);"/>
    <rect x="180" y="175" width="5" height="15" style="stroke: rgb(0, 0, 0); fill: rgb(207, 179, 0);"/>
    <rect x="185" y="220" width="5" height="15" style="stroke: rgb(0, 0, 0); fill: rgb(207, 179, 0);"/>
    <rect x="175" y="220" width="5" height="15" style="stroke: rgb(0, 0, 0); fill: rgb(207, 179, 0);"/>
    <rect x="200" y="220" width="5" height="15" style="stroke: rgb(0, 0, 0); fill: rgb(207, 179, 0);"/>
    <rect x="210" y="220" width="5" height="15" style="stroke: rgb(0, 0, 0); fill: rgb(207, 179, 0);"/>
    <rect x="255" y="175" width="20" height="15" style="stroke: rgb(0, 0, 0); fill: rgb(207, 179, 0);"/>
    <rect x="205" y="270" width="5" height="15" style="stroke: rgb(0, 0, 0); fill: rgb(207, 179, 0);"/>
    <rect x="215" y="270" width="15" height="15" style="stroke: rgb(0, 0, 0); fill: rgb(207, 179, 0);"/>
    <rect x="330" y="270" width="15" height="15" style="stroke: rgb(0, 0, 0); fill: rgb(207, 179, 0);"/>
    <rect x="320" y="270" width="5" height="15" style="stroke: rgb(0, 0, 0); fill: rgb(207, 179, 0);"/>
    <rect x="310" y="270" width="5" height="15" style="stroke: rgb(0, 0, 0); fill: rgb(207, 179, 0);"/>
    <rect x="290" y="270" width="5" height="15" style="stroke: rgb(0, 0, 0); fill: rgb(207, 179, 0);"/>
    <rect x="325" y="220" width="5" height="15" style="stroke: rgb(0, 0, 0); fill: rgb(207, 179, 0);"/>
    <rect x="315" y="220" width="5" height="15" style="stroke: rgb(0, 0, 0); fill: rgb(207, 179, 0);"/>
    <rect x="300" y="220" width="10" height="15" style="stroke: rgb(0, 0, 0); fill: rgb(207, 179, 0);"/>
    <rect x="275" y="220" width="10" height="15" style="stroke: rgb(0, 0, 0); fill: rgb(207, 179, 0);"/>
    <rect x="295" y="175" width="5" height="15" style="stroke: rgb(0, 0, 0); fill: rgb(207, 179, 0);"/>
    <rect x="285" y="175" width="5" height="15" style="stroke: rgb(0, 0, 0); fill: rgb(207, 179, 0);"/>
</svg>