<?xml version="1.0" encoding="utf-8"?>
<svg viewBox="0 0 500 500"
    xmlns="http://www.w3.org/2000/svg">
    <rect x="180" y="110" width="200" height="50" style="fill: rgb(241, 245, 174); stroke: rgb(0, 0, 0);" transform="matrix(0.9999999999999999, 0, 0, 0.9999999999999999, 0, 0)"/>
    <rect x="180" y="160" width="200" height="63.636" style="fill: rgb(245, 201, 174); stroke: rgb(0, 0, 0);" transform="matrix(0.9999999999999999, 0, 0, 0.9999999999999999, 0, 0)"/>
    <rect x="190" y="130" width="20" height="15" style="stroke: rgb(0, 0, 0); fill: rgb(207, 179, 0);" transform="matrix(0.9999999999999999, 0, 0, 0.9999999999999999, 0, 0)"/>
    <rect x="210" y="170" width="60" height="15" style="stroke: rgb(0, 0, 0); fill: rgb(235, 52, 83);" transform="matrix(0.9999999999999999, 0, 0, 0.9999999999999999, 0, 0)"/>
    <rect x="270" y="130" width="30" height="15" style="stroke: rgb(0, 0, 0); fill: rgb(207, 179, 0);" transform="matrix(0.9999999999999999, 0, 0, 0.9999999999999999, 0, 0)"/>
    <rect x="210" y="130" width="20" height="15" style="stroke: rgb(0, 0, 0); fill: rgb(207, 179, 0);" transform="matrix(0.9999999999999999, 0, 0, 0.9999999999999999, 0, 0)"/>
    <rect x="230" y="185" width="60" height="15" style="stroke: rgb(0, 0, 0); fill: rgb(4, 42, 181);" transform="matrix(0.9999999999999999, 0, 0, 0.9999999999999999, 0, 0)"/>
    <rect x="300" y="130" width="30" height="15" style="stroke: rgb(0, 0, 0); fill: rgb(207, 179, 0);" transform="matrix(0.9999999999999999, 0, 0, 0.9999999999999999, 0, 0)"/>
    <rect x="230" y="130" width="20" height="15" style="stroke: rgb(0, 0, 0); fill: rgb(207, 179, 0);" transform="matrix(0.9999999999999999, 0, 0, 0.9999999999999999, 0, 0)"/>
    <rect x="250" y="200" width="60" height="15" style="stroke: rgb(0, 0, 0); fill: rgb(4, 181, 19);" transform="matrix(0.9999999999999999, 0, 0, 0.9999999999999999, 0, 0)"/>
    <rect x="330" y="130" width="30" height="15" style="stroke: rgb(0, 0, 0); fill: rgb(207, 179, 0);" transform="matrix(0.9999999999999999, 0, 0, 0.9999999999999999, 0, 0)"/>
    <rect x="30" y="130" width="20" height="15" style="stroke: rgb(0, 0, 0); fill: rgb(207, 179, 0);" transform="matrix(0.9999999999999999, 0, 0, 0.9999999999999999, 0, 0)"/>
    <rect x="50" y="130" width="60" height="15" style="stroke: rgb(0, 0, 0); fill: rgb(235, 52, 83);" transform="matrix(0.9999999999999999, 0, 0, 0.9999999999999999, 0, 0)"/>
    <rect x="110" y="130" width="30" height="15" style="stroke: rgb(0, 0, 0); fill: rgb(207, 179, 0);" transform="matrix(0.9999999999999999, 0, 0, 0.9999999999999999, 0, 0)"/>
    <rect x="30" y="150" width="20" height="15" style="stroke: rgb(0, 0, 0); fill: rgb(207, 179, 0);" transform="matrix(0.9999999999999999, 0, 0, 0.9999999999999999, 0, 0)"/>
    <rect x="50" y="150" width="60" height="15" style="stroke: rgb(0, 0, 0); fill: rgb(4, 42, 181);" transform="matrix(0.9999999999999999, 0, 0, 0.9999999999999999, 0, 0)"/>
    <rect x="110" y="150" width="30" height="15" style="stroke: rgb(0, 0, 0); fill: rgb(207, 179, 0);" transform="matrix(0.9999999999999999, 0, 0, 0.9999999999999999, 0, 0)"/>
    <rect x="30" y="170" width="20" height="15" style="stroke: rgb(0, 0, 0); fill: rgb(207, 179, 0);" transform="matrix(0.9999999999999999, 0, 0, 0.9999999999999999, 0, 0)"/>
    <rect x="50" y="170" width="60" height="15" style="stroke: rgb(0, 0, 0); fill: rgb(4, 181, 19);" transform="matrix(0.9999999999999999, 0, 0, 0.9999999999999999, 0, 0)"/>
    <rect x="110" y="170" width="30" height="15" style="stroke: rgb(0, 0, 0); fill: rgb(207, 179, 0);" transform="matrix(0.9999999999999999, 0, 0, 0.9999999999999999, 0, 0)"/>
</svg>