<?xml version="1.0" encoding="utf-8"?>
<svg viewBox="0 0 500 500"
    xmlns="http://www.w3.org/2000/svg">
    <rect x="60" y="35" width="20" height="15" style="stroke: rgb(0, 0, 0); fill: rgb(207, 179, 0);" transform="matrix(1, 0, 0, 1, 5.684341886080802e-14, 0)"/>
    <rect x="45" y="110" width="364.83" height="50" style="fill: rgb(241, 245, 174); stroke: rgb(0, 0, 0);" transform="matrix(1, 0, 0, 1, 5.684341886080802e-14, 0)"/>
    <rect x="80" y="35" width="60" height="15" style="stroke: rgb(0, 0, 0); fill: rgb(235, 52, 83);" transform="matrix(1, 0, 0, 1, 5.684341886080802e-14, 0)"/>
    <rect x="140" y="35" width="30" height="15" style="stroke: rgb(0, 0, 0); fill: rgb(207, 179, 0);" transform="matrix(1, 0, 0, 1, 5.684341886080802e-14, 0)"/>
    <rect x="60" y="55" width="20" height="15" style="stroke: rgb(0, 0, 0); fill: rgb(207, 179, 0);" transform="matrix(1, 0, 0, 1, 5.684341886080802e-14, 0)"/>
    <rect x="80" y="55" width="60" height="15" style="stroke: rgb(0, 0, 0); fill: rgb(4, 42, 181);" transform="matrix(1, 0, 0, 1, 5.684341886080802e-14, 0)"/>
    <rect x="140" y="55" width="30" height="15" style="stroke: rgb(0, 0, 0); fill: rgb(207, 179, 0);" transform="matrix(1, 0, 0, 1, 5.684341886080802e-14, 0)"/>
    <rect x="60" y="75" width="20" height="15" style="stroke: rgb(0, 0, 0); fill: rgb(207, 179, 0);" transform="matrix(1, 0, 0, 1, 5.684341886080802e-14, 0)"/>
    <rect x="80" y="75" width="60" height="15" style="stroke: rgb(0, 0, 0); fill: rgb(4, 181, 19);" transform="matrix(1, 0, 0, 1, 5.684341886080802e-14, 0)"/>
    <rect x="140" y="75" width="30" height="15" style="stroke: rgb(0, 0, 0); fill: rgb(207, 179, 0);" transform="matrix(1, 0, 0, 1, 5.684341886080802e-14, 0)"/>
    <rect x="60" y="130" width="20" height="15" style="stroke: rgb(0, 0, 0); fill: rgb(207, 179, 0);" transform="matrix(1, 0, 0, 1, 5.684341886080802e-14, 0)"/>
    <rect x="80" y="130" width="60" height="15" style="stroke: rgb(0, 0, 0); fill: rgb(235, 52, 83);" transform="matrix(1, 0, 0, 1, 5.684341886080802e-14, 0)"/>
    <rect x="140" y="130" width="30" height="15" style="stroke: rgb(0, 0, 0); fill: rgb(207, 179, 0);" transform="matrix(1, 0, 0, 1, 5.684341886080802e-14, 0)"/>
    <rect x="170" y="130" width="20" height="15" style="stroke: rgb(0, 0, 0); fill: rgb(207, 179, 0);" transform="matrix(1, 0, 0, 1, 5.684341886080802e-14, 0)"/>
    <rect x="190" y="130" width="60" height="15" style="stroke: rgb(0, 0, 0); fill: rgb(4, 42, 181);" transform="matrix(1, 0, 0, 1, 5.684341886080802e-14, 0)"/>
    <rect x="250" y="130" width="30" height="15" style="stroke: rgb(0, 0, 0); fill: rgb(207, 179, 0);" transform="matrix(1, 0, 0, 1, 5.684341886080802e-14, 0)"/>
    <rect x="280" y="130" width="20" height="15" style="stroke: rgb(0, 0, 0); fill: rgb(207, 179, 0);" transform="matrix(1, 0, 0, 1, 5.684341886080802e-14, 0)"/>
    <rect x="300" y="130" width="60" height="15" style="stroke: rgb(0, 0, 0); fill: rgb(4, 181, 19);" transform="matrix(1, 0, 0, 1, 5.684341886080802e-14, 0)"/>
    <rect x="360" y="130" width="30" height="15" style="stroke: rgb(0, 0, 0); fill: rgb(207, 179, 0);" transform="matrix(1, 0, 0, 1, 5.684341886080802e-14, 0)"/>
</svg>