<?xml version="1.0" encoding="utf-8"?>
<svg viewBox="30 5 400 295"
    xmlns="http://www.w3.org/2000/svg">
    <rect x="220" y="60" width="200" height="50" style="fill: rgb(241, 245, 174); stroke: rgb(0, 0, 0);"/>
    <rect x="220" y="110" width="200" height="50" style="fill: rgb(241, 245, 174); stroke: rgb(0, 0, 0);"/>
    <rect x="220" y="160" width="200" height="50" style="fill: rgb(241, 245, 174); stroke: rgb(0, 0, 0);"/>
    <rect x="220" y="210" width="200" height="80" style="fill: rgb(245, 201, 174); stroke: rgb(0, 0, 0);"/>
    <rect x="230" y="85" width="5" height="15" style="stroke: rgb(0, 0, 0); fill: rgb(207, 179, 0);"/>
    <rect x="255" y="235" width="60" height="15" style="stroke: rgb(0, 0, 0); fill: rgb(235, 52, 83);"/>
    <rect x="275" y="250" width="60" height="15" style="stroke: rgb(0, 0, 0); fill: rgb(4, 42, 181);"/>
    <rect x="290" y="265" width="60" height="15" style="stroke: rgb(0, 0, 0); fill: rgb(4, 181, 19);"/>
    <rect x="250" y="85" width="10" height="15" style="stroke: rgb(0, 0, 0); fill: rgb(207, 179, 0);"/>
    <rect x="240" y="85" width="5" height="15" style="stroke: rgb(0, 0, 0); fill: rgb(207, 179, 0);"/>
    <rect x="245" y="130" width="5" height="15" style="stroke: rgb(0, 0, 0); fill: rgb(207, 179, 0);"/>
    <rect x="235" y="130" width="5" height="15" style="stroke: rgb(0, 0, 0); fill: rgb(207, 179, 0);"/>
    <rect x="260" y="130" width="5" height="15" style="stroke: rgb(0, 0, 0); fill: rgb(207, 179, 0);"/>
    <rect x="270" y="130" width="5" height="15" style="stroke: rgb(0, 0, 0); fill: rgb(207, 179, 0);"/>
    <rect x="315" y="85" width="20" height="15" style="stroke: rgb(0, 0, 0); fill: rgb(207, 179, 0);"/>
    <rect x="265" y="180" width="5" height="15" style="stroke: rgb(0, 0, 0); fill: rgb(207, 179, 0);"/>
    <rect x="275" y="180" width="15" height="15" style="stroke: rgb(0, 0, 0); fill: rgb(207, 179, 0);"/>
    <rect x="390" y="180" width="15" height="15" style="stroke: rgb(0, 0, 0); fill: rgb(207, 179, 0);"/>
    <rect x="380" y="180" width="5" height="15" style="stroke: rgb(0, 0, 0); fill: rgb(207, 179, 0);"/>
    <rect x="370" y="180" width="5" height="15" style="stroke: rgb(0, 0, 0); fill: rgb(207, 179, 0);"/>
    <rect x="350" y="180" width="5" height="15" style="stroke: rgb(0, 0, 0); fill: rgb(207, 179, 0);"/>
    <rect x="385" y="130" width="5" height="15" style="stroke: rgb(0, 0, 0); fill: rgb(207, 179, 0);"/>
    <rect x="375" y="130" width="5" height="15" style="stroke: rgb(0, 0, 0); fill: rgb(207, 179, 0);"/>
    <rect x="360" y="130" width="10" height="15" style="stroke: rgb(0, 0, 0); fill: rgb(207, 179, 0);"/>
    <rect x="335" y="130" width="10" height="15" style="stroke: rgb(0, 0, 0); fill: rgb(207, 179, 0);"/>
    <rect x="355" y="85" width="5" height="15" style="stroke: rgb(0, 0, 0); fill: rgb(207, 179, 0);"/>
    <rect x="345" y="85" width="5" height="15" style="stroke: rgb(0, 0, 0); fill: rgb(207, 179, 0);"/>
    <rect x="40" y="130" width="20" height="15" style="stroke: rgb(0, 0, 0); fill: rgb(207, 179, 0);"/>
    <rect x="60" y="130" width="60" height="15" style="stroke: rgb(0, 0, 0); fill: rgb(235, 52, 83);"/>
    <rect x="120" y="130" width="30" height="15" style="stroke: rgb(0, 0, 0); fill: rgb(207, 179, 0);"/>
    <rect x="40" y="150" width="20" height="15" style="stroke: rgb(0, 0, 0); fill: rgb(207, 179, 0);"/>
    <rect x="60" y="150" width="60" height="15" style="stroke: rgb(0, 0, 0); fill: rgb(4, 42, 181);"/>
    <rect x="120" y="150" width="30" height="15" style="stroke: rgb(0, 0, 0); fill: rgb(207, 179, 0);"/>
    <rect x="60" y="170" width="60" height="15" style="stroke: rgb(0, 0, 0); fill: rgb(4, 181, 19);"/>
    <rect x="120" y="170" width="30" height="15" style="stroke: rgb(0, 0, 0); fill: rgb(207, 179, 0);"/>
    <rect x="40" y="170" width="20" height="15" style="stroke: rgb(0, 0, 0); fill: rgb(207, 179, 0);"/>
    <rect x="160" y="15" width="120" height="35" style="fill: rgb(182, 176, 207); stroke: rgb(0, 0, 0);"/>
    <text style="white-space: pre; fill: rgb(51, 51, 51); font-family: Arial, sans-serif; font-size: 22;" x="180" y="40">Threads</text>
    <rect x="60" y="85" width="65" height="30" style="fill: rgb(182, 176, 207); stroke: rgb(0, 0, 0);"/>
    <text style="white-space: pre; fill: rgb(51, 51, 51); font-family: Arial, sans-serif; font-size: 17.6px;" x="70" y="105">Tasks</text>
    <text style="white-space: pre; fill: rgb(51, 51, 51); font-family: Arial, sans-serif; font-size: 17.6px;" x="225" y="75">Thread 1</text>
    <text style="white-space: pre; fill: rgb(51, 51, 51); font-family: Arial, sans-serif; font-size: 17.6px;" x="225" y="125">Thread 2</text>
    <text style="white-space: pre; fill: rgb(51, 51, 51); font-family: Arial, sans-serif; font-size: 17.6px;" x="225" y="175">Thread 3</text>
    <text style="white-space: pre; fill: rgb(51, 51, 51); font-family: Arial, sans-serif; font-size: 17.6px;" x="230" y="225">I/O</text>
</svg>